<?xml version="1.0" encoding="UTF-8"?>
<!DOCTYPE svg PUBLIC "-//W3C//DTD SVG 1.1//EN" "http://www.w3.org/Graphics/SVG/1.1/DTD/svg11.dtd">
<!-- Creator: CorelDRAW 2020 (64-Bit) -->
<svg xmlns="http://www.w3.org/2000/svg" xml:space="preserve" width="74.0832mm" height="22.9304mm" version="1.1" style="shape-rendering:geometricPrecision; text-rendering:geometricPrecision; image-rendering:optimizeQuality; fill-rule:evenodd; clip-rule:evenodd"
viewBox="0 0 7408.32 2293.04"
 xmlns:xlink="http://www.w3.org/1999/xlink"
 xmlns:xodm="http://www.corel.com/coreldraw/odm/2003">
 <defs>
  <style type="text/css">
   <![CDATA[
    .fil1 {fill:#FEFEFE;fill-rule:nonzero}
    .fil0 {fill:#4D4D4D;fill-rule:nonzero}
    .fil2 {fill:#FBAA26;fill-rule:nonzero}
   ]]>
  </style>
 </defs>
 <g id="Layer_x0020_1">
  <metadata id="CorelCorpID_0Corel-Layer"/>
  <polygon class="fil0" points="3020.76,1615.23 2954.19,1536.99 2952.58,1536.99 2952.58,1672.45 2978.51,1672.45 2978.51,1603.9 3020.76,1654.89 3063.25,1603.9 3063.25,1672.45 3089.18,1672.45 3089.18,1536.99 3087.52,1536.99 "/>
  <path class="fil0" d="M3264.89 1536.99l-69.32 135.47 28.15 -0.01 10.37 -21.3 63.98 0.01 10.58 21.3 28.16 -0.01 -69.32 -135.47 -2.6 0.01zm-18.15 91.54l19.42 -40.96 19.31 40.96 -38.73 0z"/>
  <polygon class="fil0" points="3557.23,1536.99 3525.35,1536.99 3471.43,1605.7 3471.43,1536.75 3445.45,1536.75 3445.45,1672.45 3471.43,1672.45 3471.43,1610.75 3528.31,1672.45 3562.58,1672.45 3501.43,1607.02 "/>
  <polygon class="fil0" points="3674.36,1672.45 3774.24,1672.45 3774.24,1649.12 3700.29,1649.12 3700.29,1617.24 3765.96,1617.24 3765.96,1593.71 3700.29,1593.71 3700.29,1559.79 3774.24,1559.79 3774.24,1536.75 3674.36,1536.75 "/>
  <path class="fil0" d="M4126.88 1550.72c-2.86,4.89 -5.82,9.87 -8.76,14.87 -2.96,5 -5.93,10 -8.92,14.92 -2.96,4.97 -5.82,9.58 -8.52,13.89 -5.61,-9.31 -11.24,-18.84 -17.07,-28.73 -5.82,-9.92 -11.51,-19.45 -17.07,-28.71l-30.23 0c8.18,14.08 16.75,28.1 25.77,42.1 9.02,13.92 17.57,27.97 25.56,42.07l0 51.3 25.98 0 0 -51.3c3.47,-5.93 7.49,-12.59 12.01,-19.92 4.63,-7.36 9.26,-14.9 13.89,-22.46 4.74,-7.59 9.37,-15.03 13.86,-22.36 4.5,-7.25 8.49,-13.76 11.93,-19.42l-30.18 -0.01c-2.54,4.31 -5.29,8.92 -8.25,13.76z"/>
  <path class="fil0" d="M4377.31 1554.87c-6.35,-6.38 -13.78,-11.43 -22.28,-15.08 -8.55,-3.73 -17.65,-5.61 -27.44,-5.61 -9.68,0 -18.73,1.88 -27.28,5.61 -8.55,3.68 -15.98,8.7 -22.36,15.08 -6.3,6.35 -11.4,13.84 -15.08,22.44 -3.7,8.57 -5.53,17.7 -5.53,27.33 0,9.74 1.85,18.86 5.53,27.44 3.68,8.49 8.78,15.98 15.08,22.3 6.38,6.35 13.81,11.4 22.36,15.13 8.55,3.7 17.59,5.53 27.28,5.53 9.76,0 18.89,-1.83 27.44,-5.53 8.52,-3.76 15.93,-8.78 22.28,-15.13 6.4,-6.32 11.48,-13.78 15.16,-22.3 3.68,-8.57 5.53,-17.7 5.53,-27.44 0,-9.63 -1.88,-18.76 -5.53,-27.33 -3.68,-8.6 -8.76,-16.09 -15.16,-22.44zm-8.73 67.37c-2.33,5.58 -5.56,10.48 -9.58,14.76 -3.97,4.26 -8.68,7.67 -14.05,10.19 -5.32,2.54 -11.14,3.76 -17.3,3.76 -6.16,0 -11.91,-1.22 -17.25,-3.76 -5.4,-2.51 -10.05,-5.93 -14.05,-10.19 -3.97,-4.29 -7.2,-9.18 -9.53,-14.76 -2.35,-5.56 -3.55,-11.43 -3.55,-17.59 0,-6.09 1.19,-11.93 3.55,-17.52 2.33,-5.61 5.53,-10.53 9.53,-14.76 4,-4.15 8.65,-7.54 14.05,-10.08 5.34,-2.57 11.09,-3.81 17.25,-3.81 6.16,0 11.99,1.24 17.3,3.81 5.37,2.54 10.05,5.93 14.05,10.08 4.02,4.21 7.22,9.15 9.58,14.76 2.33,5.58 3.47,11.43 3.47,17.52 -0.01,6.16 -1.15,12.03 -3.47,17.59z"/>
  <path class="fil0" d="M4604.13 1617.66c0,6.77 -1.08,12.38 -3.31,16.85 -2.22,4.45 -4.97,7.94 -8.26,10.5 -3.28,2.62 -6.8,4.42 -10.58,5.37 -3.76,1.01 -7.12,1.48 -10.11,1.48 -2.94,0 -6.32,-0.48 -10.05,-1.48 -3.84,-0.95 -7.3,-2.75 -10.58,-5.37 -3.28,-2.59 -6.01,-6.06 -8.26,-10.5 -2.22,-4.47 -3.36,-10.08 -3.36,-16.85l0 -80.67 -25.92 0 0 80.83c0,8.6 1.4,16.48 4.15,23.55 2.8,7.01 6.69,13.02 11.77,17.97 5.08,4.95 11.19,8.78 18.34,11.48 7.17,2.73 15.13,4.13 23.89,4.13 8.92,0 16.96,-1.43 24.1,-4.13 7.17,-2.7 13.28,-6.54 18.36,-11.48 5.11,-4.95 9,-10.95 11.67,-17.97 2.75,-7.06 4.1,-14.92 4.1,-23.55l0 -80.83 -25.97 0 0 80.67 0.02 0z"/>
  <path class="fil0" d="M4853.19 1610.38c5.11,-7.67 7.65,-16.64 7.65,-26.91 0,-6.83 -1.14,-13.07 -3.41,-18.84 -2.28,-5.77 -5.45,-10.69 -9.53,-14.79 -4.1,-4.21 -9.02,-7.33 -14.76,-9.66 -5.77,-2.33 -12.09,-3.47 -19.05,-3.47l-61.68 0.01 0 135.7 25.98 0.01 0 -43.23 25.66 -0.01c5.21,7.46 10.37,14.76 15.5,21.93 5.19,7.17 10.48,14.23 15.93,21.3l30.94 0.01c-11.14,-15.27 -22.41,-30.48 -33.79,-45.59 8.57,-3.36 15.4,-8.81 20.56,-16.46zm-31.86 -5.47c-2.54,0.9 -4.97,1.38 -7.25,1.38l-35.69 -0.01 0 -46.49 35.69 0c4.5,0 8.15,0.79 10.9,2.59 2.7,1.69 4.76,3.84 6.27,6.27 1.51,2.46 2.43,5.08 2.94,7.81 0.48,2.73 0.74,5.03 0.74,7.04 0,3.81 -0.61,7.14 -1.93,9.97 -1.3,2.86 -2.94,5.24 -4.92,7.17 -1.99,1.89 -4.21,3.29 -6.75,4.27z"/>
  <polygon class="fil0" points="5202.86,1615.23 5136.32,1536.99 5134.6,1536.99 5134.6,1672.45 5160.58,1672.45 5160.58,1603.9 5202.86,1654.89 5245.33,1603.9 5245.33,1672.45 5271.26,1672.45 5271.26,1536.99 5269.59,1536.99 "/>
  <path class="fil0" d="M5506.97 1554.87c-6.38,-6.38 -13.84,-11.43 -22.36,-15.08 -8.49,-3.73 -17.7,-5.61 -27.44,-5.61 -9.63,0 -18.73,1.88 -27.28,5.61 -8.49,3.68 -15.98,8.7 -22.28,15.08 -6.4,6.35 -11.43,13.84 -15.13,22.44 -3.7,8.57 -5.56,17.7 -5.56,27.33 0,9.74 1.85,18.86 5.56,27.44 3.7,8.49 8.73,15.98 15.13,22.3 6.3,6.35 13.78,11.4 22.28,15.13 8.55,3.7 17.65,5.53 27.28,5.53 9.74,0 18.92,-1.83 27.44,-5.53 8.52,-3.76 15.98,-8.78 22.36,-15.13 6.38,-6.32 11.4,-13.78 15.08,-22.3 3.68,-8.57 5.53,-17.7 5.53,-27.44 0,-9.63 -1.85,-18.76 -5.53,-27.33 -3.68,-8.57 -8.7,-16.09 -15.08,-22.44zm-8.81 67.37c-2.35,5.58 -5.5,10.48 -9.55,14.76 -4,4.26 -8.65,7.67 -14.05,10.19 -5.32,2.54 -11.09,3.76 -17.3,3.76 -6.11,0 -11.91,-1.22 -17.28,-3.76 -5.34,-2.51 -10.05,-5.93 -14.02,-10.19 -4.05,-4.29 -7.22,-9.18 -9.55,-14.76 -2.35,-5.56 -3.49,-11.43 -3.49,-17.59 0,-6.09 1.14,-11.93 3.49,-17.52 2.33,-5.61 5.5,-10.53 9.55,-14.76 3.97,-4.15 8.68,-7.54 14.02,-10.08 5.37,-2.57 11.14,-3.81 17.28,-3.81 6.22,0 11.99,1.24 17.3,3.81 5.4,2.54 10.05,5.93 14.05,10.08 4.05,4.21 7.2,9.15 9.55,14.76 2.33,5.58 3.52,11.43 3.52,17.52 0,6.16 -1.19,12.03 -3.52,17.59z"/>
  <polygon class="fil0" points="5735.23,1618.9 5646.04,1536.99 5643.29,1536.99 5643.29,1672.45 5669.22,1672.45 5669.22,1591.81 5758.38,1672.45 5761.13,1672.45 5761.13,1536.99 5735.23,1536.99 "/>
  <polygon class="fil0" points="5883.53,1672.45 5983.43,1672.45 5983.43,1649.12 5909.46,1649.12 5909.46,1617.24 5975.1,1617.24 5975.1,1593.71 5909.46,1593.71 5909.46,1559.79 5983.43,1559.79 5983.43,1536.75 5883.53,1536.75 "/>
  <path class="fil0" d="M6176.26 1550.72c-2.83,4.89 -5.79,9.87 -8.78,14.87 -2.99,5 -5.9,10 -8.92,14.92 -2.94,4.97 -5.79,9.58 -8.49,13.89 -5.58,-9.31 -11.24,-18.84 -17.07,-28.73 -5.79,-9.92 -11.51,-19.45 -17.04,-28.71l-30.24 0c8.12,14.08 16.75,28.1 25.77,42.1 9,13.92 17.52,27.97 25.56,42.07l0 51.3 25.96 0 0 -51.3c3.49,-5.93 7.49,-12.59 12.04,-19.92 4.6,-7.36 9.21,-14.9 13.92,-22.46 4.68,-7.59 9.34,-15.03 13.84,-22.36 4.52,-7.25 8.49,-13.76 11.91,-19.42l-30.18 -0.01c-2.59,4.31 -5.39,8.92 -8.28,13.76z"/>
  <polygon class="fil0" points="6591.58,1611.47 6557.1,1536.99 6555.46,1536.99 6520.99,1611.26 6494.48,1536.99 6466.85,1536.99 6516.89,1672.67 6519.32,1672.67 6556.39,1593.48 6593.09,1672.45 6595.65,1672.45 6646.27,1536.99 6618.65,1536.99 "/>
  <path class="fil0" d="M6861.19 1554.87c-6.32,-6.38 -13.78,-11.43 -22.3,-15.08 -8.55,-3.73 -17.67,-5.61 -27.41,-5.61 -9.66,0 -18.73,1.88 -27.31,5.61 -8.49,3.68 -15.95,8.7 -22.3,15.08 -6.38,6.35 -11.43,13.84 -15.13,22.44 -3.68,8.57 -5.56,17.7 -5.56,27.33 0,9.74 1.88,18.86 5.56,27.44 3.7,8.49 8.76,15.98 15.13,22.3 6.35,6.35 13.78,11.4 22.3,15.13 8.57,3.7 17.65,5.53 27.31,5.53 9.74,0 18.86,-1.83 27.41,-5.53 8.52,-3.76 15.98,-8.78 22.3,-15.13 6.35,-6.32 11.4,-13.78 15.13,-22.3 3.7,-8.57 5.56,-17.7 5.56,-27.44 0,-9.63 -1.85,-18.76 -5.56,-27.33 -3.73,-8.6 -8.78,-16.09 -15.13,-22.44zm-8.78 67.37c-2.33,5.58 -5.56,10.48 -9.53,14.76 -4,4.26 -8.68,7.67 -14.05,10.19 -5.34,2.54 -11.14,3.76 -17.3,3.76 -6.11,0 -11.96,-1.22 -17.28,-3.76 -5.4,-2.51 -10.08,-5.93 -14.08,-10.19 -4.05,-4.29 -7.17,-9.18 -9.53,-14.76 -2.33,-5.56 -3.47,-11.43 -3.47,-17.59 0,-6.09 1.14,-11.93 3.47,-17.52 2.35,-5.61 5.5,-10.53 9.53,-14.76 4,-4.15 8.68,-7.54 14.08,-10.08 5.32,-2.57 11.17,-3.81 17.28,-3.81 6.16,0 11.96,1.24 17.3,3.81 5.4,2.54 10.05,5.93 14.05,10.08 3.97,4.21 7.2,9.15 9.53,14.76 2.3,5.58 3.47,11.43 3.47,17.52 -0.01,6.16 -1.15,12.03 -3.47,17.59z"/>
  <path class="fil0" d="M7098.31 1610.38c5.13,-7.67 7.67,-16.64 7.67,-26.91 0,-6.83 -1.14,-13.07 -3.41,-18.84 -2.3,-5.77 -5.5,-10.69 -9.58,-14.79 -4.05,-4.21 -9,-7.33 -14.74,-9.66 -5.74,-2.33 -12.14,-3.47 -19.02,-3.47l-61.67 0.01 0 135.7 25.92 0.01 0 -43.23 25.72 -0.01c5.13,7.46 10.32,14.76 15.5,21.93 5.19,7.17 10.48,14.23 15.85,21.3l31.01 0.01c-11.14,-15.27 -22.41,-30.48 -33.81,-45.59 8.57,-3.36 15.43,-8.81 20.56,-16.46zm-31.86 -5.47c-2.57,0.9 -4.97,1.38 -7.3,1.38l-35.67 -0.01 0 -46.49 35.67 0c4.55,0 8.18,0.79 10.87,2.59 2.75,1.69 4.84,3.84 6.32,6.27 1.46,2.46 2.43,5.08 2.88,7.81 0.53,2.73 0.77,5.03 0.77,7.04 0,3.81 -0.66,7.14 -1.96,9.97 -1.32,2.86 -2.91,5.24 -4.89,7.17 -1.92,1.89 -4.2,3.29 -6.69,4.27z"/>
  <polygon class="fil0" points="7335.45,1536.99 7303.57,1536.99 7249.65,1605.7 7249.65,1536.75 7223.67,1536.75 7223.67,1672.45 7249.65,1672.45 7249.65,1610.75 7306.51,1672.45 7340.8,1672.45 7279.68,1607.02 "/>
  <path class="fil0" d="M3079.95 764.83l546.47 0c19.71,0 36.46,16.75 36.46,37.44 0,19.66 -16.75,35.43 -36.46,35.43l-600.66 -0.01c-25.61,0 -47.28,21.67 -47.28,47.28 0,25.61 21.67,47.23 47.28,47.23l596.77 0c72.84,0 131.89,-57.07 131.89,-129.94 0,-72.89 -59.06,-131.95 -131.89,-131.95l-544.59 0.01c-19.71,0 -37.39,-16.75 -37.39,-36.43 0,-20.69 17.67,-36.46 37.39,-36.46l599.73 0c25.61,0 47.28,-21.62 47.28,-47.23 0,-25.61 -21.67,-47.31 -47.28,-47.31l-597.69 0c-72.89,0 -131.02,58.13 -131.02,131 -0.03,72.81 58.07,130.94 130.99,130.94z"/>
  <path class="fil0" d="M3929.63 932.2c25.61,0 47.31,-21.62 47.31,-47.23l0 -214.66c0,-27.6 0,-40.4 4.92,-40.4 3.94,0 12.81,8.86 27.57,26.59l216.64 246.19c16.75,19.63 43.26,29.5 71.86,29.5 28.58,0 55.17,-9.87 71.91,-29.5l216.56 -246.19c14.79,-16.75 23.68,-26.59 27.6,-26.59 4.95,0 4.95,12.81 4.95,40.4l0 214.66c0,25.61 21.67,47.23 47.28,47.23 25.61,0 47.23,-21.62 47.23,-47.23l0 -287.54c0,-52.18 -32.46,-94.54 -84.69,-94.54 -31.51,0 -59.06,15.77 -76.81,40.38l-0.95 0 -225.5 258.02c-5.9,6.91 -17.73,15.72 -27.57,15.72 -9.87,0 -21.67,-8.81 -27.57,-15.72l-226.51 -258.02c-20.64,-22.65 -45.24,-40.38 -76.81,-40.38 -52.23,0 -84.67,42.36 -84.67,94.54l0 287.58c0.02,25.6 21.69,47.19 47.25,47.19z"/>
  <path class="fil0" d="M4888.69 932.2c13.78,0 27.6,-6.91 36.46,-17.73l231.43 -307.21c7.83,-9.87 22.6,-26.62 37.39,-26.62 14.79,0 29.55,15.77 38.44,26.62l229.42 306.28c8.86,11.75 22.67,18.65 37.47,18.65 25.61,0 47.23,-21.62 47.23,-47.23 0,-12.81 -5.9,-24.63 -13.78,-33.5l-239.29 -320.04c-22.62,-30.53 -60.06,-48.26 -99.46,-48.26 -42.31,0 -80.72,20.69 -103.4,51.22l-239.29 322c-6.85,7.88 -9.82,17.73 -9.82,28.58 -0.05,25.65 21.57,47.24 47.2,47.24z"/>
  <path class="fil0" d="M5721.68 932.2c24.63,0 47.28,-21.62 47.28,-47.23l0 -83.69c0,-19.71 13.78,-33.5 30.56,-36.46l195.95 0.01c141.82,0 261.96,74.82 368.25,153.64 9.9,7.88 20.66,13.73 33.47,13.73 25.61,0 47.31,-21.62 47.31,-47.23 0,-17.73 -12.81,-31.51 -26.62,-42.36 -38.36,-29.55 -74.8,-56.12 -110.28,-77.79l3.94 0.01c72.84,0 132.95,-58.13 132.95,-130.97 0,-72.84 -60.09,-131 -132.95,-131l-589.86 0c-25.56,0 -47.25,21.67 -47.25,47.31 0,25.64 21.67,47.23 47.25,47.23l593.81 0c19.74,0 37.47,16.75 37.47,36.46 0,20.69 -17.73,36.43 -37.47,36.43l-521.89 0c-66.94,0 -119.14,54.11 -119.14,120.15l0 94.54c-0.03,25.63 21.66,47.22 47.22,47.22z"/>
  <path class="fil0" d="M6615.76 597.43l295.41 0 0 287.58c0,25.61 21.67,47.23 47.28,47.23 25.61,0 47.28,-21.62 47.28,-47.23l0 -287.58 291.47 0c25.64,0 47.23,-21.62 47.23,-47.23 0,-25.61 -21.59,-47.31 -47.23,-47.31l-677.5 0c-25.61,0 -47.31,21.67 -47.31,47.31 0.01,24.55 19.72,45.29 43.37,47.23z"/>
  <path class="fil0" d="M3222.16 1108.55c0,-8.15 -6.91,-15.08 -15.08,-15.08l-223.17 0c-8.2,0 -15.08,6.96 -15.08,15.08 0,8.2 6.88,15.13 15.08,15.13l223.17 0c8.18,0.03 15.08,-6.93 15.08,-15.13z"/>
  <path class="fil0" d="M2988.93 1146.99c-13.84,0 -20.11,2.83 -20.11,14.16l0 54.42c0,8.2 6.88,15.08 15.08,15.08 8.18,0 15.13,-6.88 15.13,-15.08l0 -38.36 201.09 0c8.2,0 15.13,-6.96 15.13,-15.13 0,-8.15 -6.93,-15.08 -15.13,-15.08l-211.19 -0.01z"/>
  <path class="fil0" d="M3263.15 1108.55l0 107.02c0,8.2 6.91,15.08 15.08,15.08 8.17,0 15.08,-6.88 15.08,-15.08l0 -107.02c0,-8.15 -6.91,-15.08 -15.08,-15.08 -8.17,0 -15.08,6.96 -15.08,15.08z"/>
  <path class="fil0" d="M3548.58 1108.55l0 62.02c0,15.13 -0.98,23.26 -7.25,23.26 -3.47,0 -8.49,-2.78 -16.32,-7.51l-144.15 -88.16c-4.74,-2.8 -10.42,-4.71 -16.38,-4.71 -17.04,0 -30.19,13.55 -30.19,30.53l0 91.57c0,8.2 6.91,15.08 15.08,15.08 8.2,0 15.11,-6.88 15.11,-15.08l0 -61.97c0,-15.08 0.93,-23.26 7.25,-23.26 3.41,0 8.49,2.83 16.32,7.57l144.15 88.11c4.71,2.86 10.37,4.71 16.38,4.71 16.96,0 30.19,-13.52 30.19,-30.53l0 -91.57c0,-8.15 -6.91,-15.08 -15.08,-15.08 -8.17,0 -15.11,6.9 -15.11,15.02z"/>
  <path class="fil0" d="M3699.37 1103.55l-76.49 102.92c-2.22,2.54 -3.15,5.64 -3.15,9.1 0,8.2 6.93,15.08 15.13,15.08 4.42,0 8.78,-2.2 11.62,-5.64l74 -98.21c2.49,-3.12 7.2,-8.44 11.91,-8.44 4.74,0 9.42,5.03 12.3,8.44l73.29 97.92c2.86,3.76 7.25,5.95 12.01,5.95 8.2,0 15.08,-6.88 15.08,-15.08 0,-4.07 -1.91,-7.88 -4.42,-10.69l-76.46 -102.29c-7.2,-9.76 -19.21,-15.4 -31.8,-15.4 -13.52,-0.01 -25.77,6.57 -33.02,16.34z"/>
  <path class="fil0" d="M4100.34 1108.55l0 62.02c0,15.13 -0.93,23.26 -7.25,23.26 -3.49,0 -8.52,-2.78 -16.35,-7.51l-144.15 -88.16c-4.71,-2.8 -10.45,-4.71 -16.38,-4.71 -17.01,0 -30.24,13.55 -30.24,30.53l0 91.57c0,8.2 6.96,15.08 15.16,15.08 8.18,0 15.08,-6.88 15.08,-15.08l0.01 -61.97c0,-15.08 0.93,-23.26 7.25,-23.26 3.41,0 8.49,2.83 16.32,7.57l144.15 88.11c4.74,2.86 10.4,4.71 16.4,4.71 16.96,0 30.19,-13.52 30.19,-30.53l0 -91.57c0,-8.15 -6.88,-15.08 -15.08,-15.08 -8.23,-0.06 -15.11,6.9 -15.11,15.02z"/>
  <path class="fil0" d="M4235.97 1123.71l176.92 0c8.15,0 15.11,-6.93 15.11,-15.13 0,-8.15 -6.96,-15.08 -15.11,-15.08l-183.48 -0.01c-36.2,0 -57.94,36.83 -57.94,68.61 0,31.17 20.48,68.58 54.82,68.58l186.6 0c8.15,0 15.11,-6.88 15.11,-15.08 0,-8.2 -6.96,-15.08 -15.11,-15.08l-176.92 0c-28.92,0 -35.19,-23.28 -35.19,-38.42 0,-15.11 6.24,-38.39 35.19,-38.39z"/>
  <path class="fil0" d="M4468.88 1108.55l0 107.02c0,8.2 6.93,15.08 15.13,15.08 8.2,0 15.13,-6.88 15.13,-15.08l0 -107.02c0,-8.15 -6.96,-15.08 -15.13,-15.08 -8.17,0 -15.13,6.96 -15.13,15.08z"/>
  <path class="fil0" d="M4652.71 1087.2c-13.52,0 -25.82,6.59 -33.02,16.35l-76.46 102.92c-2.22,2.54 -3.18,5.64 -3.18,9.1 0,8.2 6.93,15.08 15.11,15.08 4.42,0 8.84,-2.2 11.62,-5.64l73.98 -98.21c2.49,-3.12 7.22,-8.44 11.93,-8.44 4.74,0 9.42,5.03 12.3,8.44l73.32 97.92c2.86,3.76 7.2,5.95 11.99,5.95 8.18,0 15.08,-6.88 15.08,-15.08 0,-4.07 -1.88,-7.88 -4.42,-10.69l-76.49 -102.29c-7.2,-9.75 -19.16,-15.41 -31.76,-15.41z"/>
  <path class="fil0" d="M4849.43 1230.68l187.91 0c8.15,0 15.11,-6.88 15.11,-15.08 0,-8.2 -6.96,-15.08 -15.11,-15.08l-188.84 0c-6.27,0 -11.99,-5.34 -11.99,-11.67l0 -80.27c0,-8.15 -7.2,-15.08 -15.08,-15.08 -8.2,0 -15.11,6.96 -15.11,15.08l0 80.27c0.01,23.28 19.83,41.83 43.11,41.83z"/>
  <path class="fil0" d="M5460.96 1200.52l-191.95 0c-8.2,0 -15.08,6.88 -15.08,15.08 0,8.2 6.88,15.08 15.08,15.08l190.71 0c23.28,0 42.15,-18.23 42.15,-41.54 0,-23.28 -18.86,-42.15 -42.15,-42.15l-174.02 0c-6.32,0 -11.99,-5.34 -11.99,-11.67 0,-6.61 5.66,-11.62 11.99,-11.62l191.64 0.01c8.15,0 15.08,-6.93 15.08,-15.13 0,-8.15 -6.93,-15.08 -15.08,-15.08l-191.03 -0.01c-23.28,0 -41.88,18.57 -41.88,41.86 0,23.28 18.6,41.88 41.88,41.88l174.65 0c6.32,0 11.67,5.34 11.67,11.93 0.03,6.3 -5.32,11.36 -11.67,11.36z"/>
  <path class="fil0" d="M5597.59 1230.68l143.54 0c36.2,0 57.89,-36.83 57.89,-68.58 0,-31.12 -20.45,-66.7 -54.8,-68.61l-143.45 0c-36.2,0 -57.92,36.83 -57.92,68.61 0,31.14 20.48,66.7 54.74,68.58zm9.77 -106.97l127.13 0c29,0 35.27,23.28 35.27,38.39 0,15.13 -6.27,38.42 -35.27,38.42l-127.13 0c-28.95,0 -35.27,-23.28 -35.27,-38.42 0,-15.11 6.32,-38.39 35.27,-38.39z"/>
  <path class="fil0" d="M5855.08 1093.47c-8.26,0 -15.13,6.96 -15.13,15.08l0 80.27c0,23.28 19.82,41.86 43.07,41.86l187.94 0c8.2,0 15.08,-6.88 15.08,-15.08 0,-8.2 -6.88,-15.08 -15.08,-15.08l-188.83 0c-6.3,0 -11.93,-5.34 -11.93,-11.67l0 -80.27c-0.01,-8.15 -7.28,-15.11 -15.12,-15.11z"/>
  <path class="fil0" d="M6142.16 1093.78c-8.2,0 -15.13,6.93 -15.13,15.13l0 53.15c0,31.17 20.4,66.73 54.74,68.58l143.51 0.01c36.2,0 57.86,-36.83 57.86,-68.58l0 -53.15c0,-8.2 -6.91,-15.13 -15.08,-15.13 -8.15,0 -15.08,6.93 -15.08,15.13l0 53.15c0,15.13 -6.32,38.42 -35.27,38.42l-125.23 0c-29,0 -35.24,-23.28 -35.24,-38.42l0 -53.15c0,-8.18 -6.96,-15.14 -15.08,-15.14z"/>
  <path class="fil0" d="M6547.47 1230.68c8.2,0 15.13,-6.88 15.13,-15.08l0 -91.89 93.14 0c8.2,0 15.13,-6.93 15.13,-15.13 0,-8.15 -6.93,-15.08 -15.13,-15.08l-216.48 -0.01c-8.2,0 -15.13,6.96 -15.13,15.08 0,7.88 6.32,14.53 13.86,15.13l94.38 0.01 0 91.89c0.02,8.17 6.98,15.08 15.1,15.08z"/>
  <path class="fil0" d="M6711.78 1108.55l0 107.02c0,8.2 6.96,15.08 15.16,15.08 8.18,0 15.08,-6.88 15.08,-15.08l0 -107.02c0,-8.15 -6.91,-15.08 -15.08,-15.08 -8.2,0 -15.16,6.96 -15.16,15.08z"/>
  <path class="fil0" d="M6840.84 1093.47c-36.2,0 -57.92,36.83 -57.92,68.61 0,31.17 20.48,66.73 54.77,68.58l143.54 -0.01c36.2,0 57.89,-36.83 57.89,-68.58 0,-31.12 -20.48,-66.7 -54.77,-68.61l-143.51 0.01zm168.99 68.6c0,15.13 -6.27,38.42 -35.27,38.42l-127.13 0c-28.95,0 -35.27,-23.28 -35.27,-38.42 0,-15.08 6.32,-38.39 35.27,-38.39l127.13 0c29,0.03 35.27,23.31 35.27,38.39z"/>
  <path class="fil0" d="M7294.34 1108.55l0 62.02c0,15.13 -0.93,23.26 -7.2,23.26 -3.47,0 -8.49,-2.78 -16.38,-7.51l-144.17 -88.16c-4.68,-2.8 -10.37,-4.71 -16.32,-4.71 -17.01,0 -30.24,13.55 -30.24,30.53l0 91.57c0,8.2 6.96,15.08 15.13,15.08 8.23,0 15.11,-6.88 15.11,-15.08l0 -61.97c0,-15.08 0.93,-23.26 7.2,-23.26 3.47,0 8.55,2.83 16.38,7.57l144.15 88.11c4.71,2.86 10.37,4.71 16.32,4.71 17.01,0 30.24,-13.52 30.24,-30.53l0 -91.57c0,-8.15 -6.91,-15.08 -15.08,-15.08 -8.18,-0.06 -15.14,6.9 -15.14,15.02z"/>
  <path class="fil0" d="M2970.57 1415.76l4352.24 0c11.93,0 21.64,-9.66 21.64,-21.64 0,-11.96 -9.71,-21.64 -21.64,-21.64l-4352.24 -0.01c-11.93,0 -21.64,9.68 -21.64,21.64 0.02,11.99 9.71,21.65 21.64,21.65z"/>
  <path class="fil1" d="M2406.96 934.19c-91.65,369.49 -342.11,885.82 -1013.78,1256.27 -671.65,-370.45 -922.15,-886.78 -1013.83,-1256.27 -82.84,-334.09 -54.8,-611.64 -41.99,-700.67l2111.66 0c12.73,89.03 40.83,366.58 -42.06,700.67z"/>
  <path class="fil1" d="M2511.33 158.75l-2236.28 0 -6.14 29.97c-2.75,13.65 -66.62,339.17 37.09,760.15 60.91,247.28 167.43,475.75 316.65,679.05 186.16,253.68 439.39,468.34 752.74,638.04l17.78 9.63 17.81 -9.63c313.35,-169.7 566.61,-384.36 752.74,-638.04 149.25,-203.31 255.75,-431.77 316.68,-679.05 103.64,-420.98 39.82,-746.5 37.02,-760.15l-6.09 -29.97z"/>
  <path class="fil0" d="M2511.33 158.75l-2236.28 0 -6.14 29.97c-2.75,13.65 -66.62,339.17 37.09,760.15 60.91,247.28 167.43,475.75 316.65,679.05 186.16,253.68 439.39,468.34 752.74,638.04l17.78 9.63 17.81 -9.63c313.35,-169.7 566.61,-384.36 752.74,-638.04 149.25,-203.31 255.75,-431.77 316.68,-679.05 103.64,-420.98 39.82,-746.5 37.02,-760.15l-6.09 -29.97zm-104.37 775.44c-91.65,369.49 -342.11,885.82 -1013.78,1256.27 -671.65,-370.45 -922.15,-886.78 -1013.83,-1256.27 -82.84,-334.09 -54.8,-611.64 -41.99,-700.67l2111.66 0c12.73,89.03 40.83,366.58 -42.06,700.67z"/>
  <path class="fil2" d="M1828.5 1407.69c-71.12,103.66 -154.97,196.24 -251.27,277.55 -22.91,19.31 -46.51,38.05 -70.78,56.07 -36.27,26.86 -73.98,52.28 -113.24,76.28 -39.37,-24 -77.07,-49.42 -113.32,-76.28 -24.26,-18.04 -47.86,-36.75 -70.78,-56.07 -2.94,-2.46 -5.95,-5 -8.86,-7.59 -4.15,-3.55 -8.23,-7.12 -12.33,-10.72 -4.1,-3.55 -8.18,-7.17 -12.22,-10.9 -4.02,-3.6 -8.1,-7.28 -12.09,-11.01 -21.8,-20 -42.89,-40.67 -63.21,-62.04l111.46 -0.01 0 -226.06 -11.62 0 -535.35 0c27.07,51.86 56.46,101.97 88.27,150.12 3.73,5.72 7.51,11.35 11.35,17.04 3.86,5.64 7.7,11.24 11.56,16.85 3.89,5.61 7.78,11.17 11.72,16.72 3.78,5.32 7.62,10.61 11.46,15.85 0.26,0.48 0.64,0.87 0.95,1.32 2.01,2.75 4.05,5.48 6.06,8.2 1.61,2.2 3.23,4.37 4.84,6.51 0.37,0.48 0.66,0.95 1.03,1.35 4.02,5.29 7.99,10.64 12.09,15.88 4.07,5.4 8.31,10.77 12.51,16.06 4.18,5.29 8.44,10.58 12.7,15.88 0.11,0.24 0.32,0.42 0.48,0.61 4.15,5.08 8.26,10.13 12.38,15.11 11.88,14.29 24.02,28.42 36.35,42.25 3.65,4.1 7.33,8.2 11.01,12.25 0.71,0.77 1.4,1.61 2.12,2.33 3.49,3.86 6.96,7.54 10.48,11.35 0.85,0.98 1.77,1.96 2.7,2.91 3.84,4.15 7.78,8.31 11.72,12.46 4.31,4.55 8.65,9.08 13.02,13.55 78.26,80.35 164.94,152.85 259.5,216.77 23.12,15.66 46.73,30.8 70.78,45.38 19.13,11.64 38.52,23.02 58.23,33.92l55.09 30.67 55.01 -30.67c19.69,-10.9 39.05,-22.28 58.23,-33.92 24.05,-14.58 47.65,-29.71 70.78,-45.38 215.03,-145.52 389.31,-334.86 516.65,-560.55 9.42,-16.7 18.52,-33.63 27.44,-50.77l-259.7 0.01c-10.82,17.17 -21.77,34.13 -33.2,50.72z"/>
  <path class="fil2" d="M2326.6 330.94l-1046.69 0 0 1320.85c36.04,28.97 73.79,56.33 113.32,82.1 39.5,-25.77 77.18,-53.13 113.24,-82.1l0 -1094.29 599.44 0c-1.08,20.98 -2.8,44.74 -5.24,70.72l227.57 0c9.45,-113.22 5.34,-185.42 4.92,-191.06l-6.56 -106.22z"/>
  <path class="fil2" d="M830.89 1181.86l78.18 -0.13 300.06 -0.64 0 -225.93 -461.46 0.01c-6.96,-24.05 -13.18,-47.28 -18.84,-70.41 -32.41,-132.95 -44.34,-248.89 -48.39,-327.29l528.67 0 0 -226.53 -749.36 0 -6.61 106.2c-0.56,9.26 -11.19,195.29 43.42,448.15 4.97,23.07 10.42,46.62 16.59,70.72 7.25,28.63 15.29,57.92 24.37,87.74 14.42,47.33 30.53,93.48 48.23,138.64l245.14 -0.53z"/>
  <path class="fil2" d="M2201.96 1179.09c17.17,-44.11 32.89,-89.16 46.91,-135.33 9.34,-30.9 17.67,-61.15 25.21,-90.7l-72.12 -0.01 0 0 -459.56 0 0 0 -165.18 0 0 227.33 50.72 -0.11 0 -1.14 250.64 0.01c0,0 0,0 0,-0.03l78.16 0c0,0 0,0.03 0,0.03l245.22 -0.05c0,0.02 0,0.02 0,0l0 0z"/>
 </g>
</svg>
