<?xml version="1.0" encoding="utf-8"?>
<!-- Generator: Adobe Illustrator 15.0.0, SVG Export Plug-In . SVG Version: 6.00 Build 0)  -->
<!DOCTYPE svg PUBLIC "-//W3C//DTD SVG 1.1//EN" "http://www.w3.org/Graphics/SVG/1.1/DTD/svg11.dtd">
<svg version="1.1" id="Layer_1" xmlns="http://www.w3.org/2000/svg" xmlns:xlink="http://www.w3.org/1999/xlink" x="0px" y="0px"
	 width="600px" height="80px" viewBox="0 0 600 80" enable-background="new 0 0 600 80" xml:space="preserve">
<g>
	<polygon fill="#4D4D4D" points="104.837,55.048 102.321,52.091 102.26,52.091 102.26,57.211 103.24,57.211 103.24,54.62 
		104.837,56.547 106.443,54.62 106.443,57.211 107.423,57.211 107.423,52.091 107.36,52.091 	"/>
	<path fill="#4D4D4D" d="M114.064,52.091l-2.62,5.12h1.064l0.392-0.805h2.418l0.4,0.805h1.064l-2.62-5.12H114.064z M113.378,55.551
		l0.734-1.548l0.73,1.548H113.378z"/>
	<polygon fill="#4D4D4D" points="125.113,52.091 123.908,52.091 121.87,54.688 121.87,52.082 120.888,52.082 120.888,57.211 
		121.87,57.211 121.87,54.879 124.02,57.211 125.315,57.211 123.004,54.738 	"/>
	<polygon fill="#4D4D4D" points="129.54,57.211 133.315,57.211 133.315,56.329 130.52,56.329 130.52,55.124 133.002,55.124 
		133.002,54.235 130.52,54.235 130.52,52.953 133.315,52.953 133.315,52.082 129.54,52.082 	"/>
	<path fill="#4D4D4D" d="M146.643,52.61c-0.108,0.185-0.22,0.373-0.331,0.562c-0.112,0.189-0.224,0.378-0.337,0.564
		c-0.112,0.188-0.22,0.362-0.322,0.525c-0.212-0.352-0.425-0.712-0.645-1.086c-0.22-0.375-0.435-0.735-0.645-1.085h-1.143
		c0.309,0.532,0.633,1.062,0.974,1.591c0.341,0.526,0.664,1.057,0.966,1.59v1.939h0.982v-1.939c0.131-0.224,0.283-0.476,0.454-0.753
		c0.175-0.278,0.35-0.563,0.525-0.849c0.179-0.287,0.354-0.568,0.524-0.845c0.17-0.274,0.321-0.52,0.451-0.734h-1.141
		C146.859,52.253,146.755,52.427,146.643,52.61z"/>
	<path fill="#4D4D4D" d="M156.108,52.767c-0.24-0.241-0.521-0.432-0.842-0.57c-0.323-0.141-0.667-0.212-1.037-0.212
		c-0.366,0-0.708,0.071-1.031,0.212c-0.323,0.139-0.604,0.329-0.845,0.57c-0.238,0.24-0.431,0.523-0.57,0.848
		c-0.14,0.324-0.209,0.669-0.209,1.033c0,0.368,0.07,0.713,0.209,1.037c0.139,0.321,0.332,0.604,0.57,0.843
		c0.241,0.24,0.522,0.431,0.845,0.572c0.323,0.14,0.665,0.209,1.031,0.209c0.369,0,0.714-0.069,1.037-0.209
		c0.322-0.142,0.602-0.332,0.842-0.572c0.242-0.239,0.434-0.521,0.573-0.843c0.139-0.324,0.209-0.669,0.209-1.037
		c0-0.364-0.071-0.709-0.209-1.033C156.542,53.29,156.35,53.007,156.108,52.767z M155.778,55.313
		c-0.088,0.211-0.21,0.396-0.362,0.558c-0.15,0.161-0.328,0.29-0.531,0.385c-0.201,0.096-0.421,0.142-0.654,0.142
		c-0.233,0-0.45-0.046-0.652-0.142c-0.204-0.095-0.38-0.224-0.531-0.385c-0.15-0.162-0.272-0.347-0.36-0.558
		c-0.089-0.21-0.134-0.432-0.134-0.665c0-0.23,0.045-0.451,0.134-0.662c0.088-0.212,0.209-0.398,0.36-0.558
		c0.151-0.157,0.327-0.285,0.531-0.381c0.202-0.097,0.419-0.144,0.652-0.144c0.233,0,0.453,0.047,0.654,0.144
		c0.203,0.096,0.38,0.224,0.531,0.381c0.152,0.159,0.273,0.346,0.362,0.558c0.088,0.211,0.131,0.432,0.131,0.662
		C155.909,54.881,155.866,55.103,155.778,55.313z"/>
	<path fill="#4D4D4D" d="M164.681,55.14c0,0.256-0.041,0.468-0.125,0.637c-0.084,0.168-0.188,0.3-0.312,0.397
		c-0.124,0.099-0.257,0.167-0.4,0.203c-0.142,0.038-0.269,0.056-0.382,0.056c-0.111,0-0.239-0.018-0.38-0.056
		c-0.145-0.036-0.276-0.104-0.4-0.203c-0.124-0.098-0.227-0.229-0.312-0.397c-0.084-0.169-0.127-0.381-0.127-0.637v-3.049h-0.98
		v3.055c0,0.325,0.053,0.623,0.157,0.89c0.106,0.265,0.253,0.492,0.445,0.679c0.192,0.187,0.423,0.332,0.693,0.434
		c0.271,0.103,0.572,0.156,0.903,0.156c0.337,0,0.641-0.054,0.911-0.156c0.271-0.102,0.502-0.247,0.694-0.434
		c0.193-0.187,0.34-0.414,0.441-0.679c0.104-0.267,0.155-0.564,0.155-0.89v-3.055h-0.982V55.14z"/>
	<path fill="#4D4D4D" d="M174.094,54.865c0.193-0.29,0.289-0.629,0.289-1.017c0-0.258-0.043-0.494-0.129-0.712
		c-0.086-0.218-0.206-0.404-0.36-0.559c-0.155-0.159-0.341-0.277-0.558-0.365c-0.218-0.088-0.457-0.131-0.72-0.131h-2.331v5.129
		h0.982v-1.634h0.97c0.197,0.282,0.392,0.558,0.586,0.829c0.196,0.271,0.396,0.538,0.602,0.805h1.169
		c-0.421-0.577-0.847-1.152-1.277-1.723C173.641,55.36,173.899,55.154,174.094,54.865z M172.89,54.658
		c-0.096,0.034-0.188,0.052-0.274,0.052h-1.349v-1.757h1.349c0.17,0,0.308,0.03,0.412,0.098c0.102,0.064,0.18,0.145,0.237,0.237
		c0.057,0.093,0.092,0.192,0.111,0.295c0.018,0.103,0.028,0.19,0.028,0.266c0,0.144-0.023,0.27-0.073,0.377
		c-0.049,0.108-0.111,0.198-0.186,0.271C173.07,54.568,172.986,54.621,172.89,54.658z"/>
	<polygon fill="#4D4D4D" points="187.31,55.048 184.795,52.091 184.73,52.091 184.73,57.211 185.712,57.211 185.712,54.62 
		187.31,56.547 188.915,54.62 188.915,57.211 189.895,57.211 189.895,52.091 189.832,52.091 	"/>
	<path fill="#4D4D4D" d="M198.804,52.767c-0.241-0.241-0.523-0.432-0.845-0.57c-0.321-0.141-0.669-0.212-1.037-0.212
		c-0.364,0-0.708,0.071-1.031,0.212c-0.321,0.139-0.604,0.329-0.842,0.57c-0.242,0.24-0.432,0.523-0.572,0.848
		c-0.14,0.324-0.21,0.669-0.21,1.033c0,0.368,0.07,0.713,0.21,1.037c0.14,0.321,0.33,0.604,0.572,0.843
		c0.238,0.24,0.521,0.431,0.842,0.572c0.323,0.14,0.667,0.209,1.031,0.209c0.368,0,0.715-0.069,1.037-0.209
		c0.322-0.142,0.604-0.332,0.845-0.572c0.241-0.239,0.431-0.521,0.57-0.843c0.139-0.324,0.209-0.669,0.209-1.037
		c0-0.364-0.07-0.709-0.209-1.033S199.045,53.007,198.804,52.767z M198.471,55.313c-0.089,0.211-0.208,0.396-0.361,0.558
		c-0.151,0.161-0.327,0.29-0.531,0.385c-0.201,0.096-0.419,0.142-0.654,0.142c-0.231,0-0.45-0.046-0.653-0.142
		c-0.202-0.095-0.38-0.224-0.53-0.385c-0.153-0.162-0.273-0.347-0.361-0.558c-0.089-0.21-0.132-0.432-0.132-0.665
		c0-0.23,0.043-0.451,0.132-0.662c0.088-0.212,0.208-0.398,0.361-0.558c0.15-0.157,0.328-0.285,0.53-0.381
		c0.203-0.097,0.421-0.144,0.653-0.144c0.235,0,0.453,0.047,0.654,0.144c0.204,0.096,0.38,0.224,0.531,0.381
		c0.153,0.159,0.272,0.346,0.361,0.558c0.088,0.211,0.133,0.432,0.133,0.662C198.604,54.881,198.559,55.103,198.471,55.313z"/>
	<polygon fill="#4D4D4D" points="207.431,55.187 204.06,52.091 203.956,52.091 203.956,57.211 204.936,57.211 204.936,54.163 
		208.306,57.211 208.41,57.211 208.41,52.091 207.431,52.091 	"/>
	<polygon fill="#4D4D4D" points="213.036,57.211 216.812,57.211 216.812,56.329 214.016,56.329 214.016,55.124 216.497,55.124 
		216.497,54.235 214.016,54.235 214.016,52.953 216.812,52.953 216.812,52.082 213.036,52.082 	"/>
	<path fill="#4D4D4D" d="M224.1,52.61c-0.107,0.185-0.219,0.373-0.332,0.562c-0.113,0.189-0.223,0.378-0.337,0.564
		c-0.111,0.188-0.219,0.362-0.321,0.525c-0.211-0.352-0.425-0.712-0.645-1.086c-0.219-0.375-0.435-0.735-0.644-1.085h-1.143
		c0.307,0.532,0.633,1.062,0.974,1.591c0.34,0.526,0.662,1.057,0.966,1.59v1.939h0.981v-1.939c0.132-0.224,0.283-0.476,0.455-0.753
		c0.174-0.278,0.348-0.563,0.526-0.849c0.177-0.287,0.353-0.568,0.523-0.845c0.171-0.274,0.321-0.52,0.45-0.734h-1.14
		C224.315,52.253,224.209,52.427,224.1,52.61z"/>
	<polygon fill="#4D4D4D" points="239.797,54.906 238.494,52.091 238.432,52.091 237.129,54.898 236.127,52.091 235.083,52.091 
		236.974,57.219 237.066,57.219 238.467,54.226 239.854,57.211 239.951,57.211 241.864,52.091 240.82,52.091 	"/>
	<path fill="#4D4D4D" d="M249.987,52.767c-0.239-0.241-0.521-0.432-0.843-0.57c-0.323-0.141-0.668-0.212-1.036-0.212
		c-0.365,0-0.708,0.071-1.032,0.212c-0.321,0.139-0.603,0.329-0.843,0.57c-0.241,0.24-0.432,0.523-0.572,0.848
		c-0.139,0.324-0.21,0.669-0.21,1.033c0,0.368,0.071,0.713,0.21,1.037c0.14,0.321,0.331,0.604,0.572,0.843
		c0.24,0.24,0.521,0.431,0.843,0.572c0.324,0.14,0.667,0.209,1.032,0.209c0.368,0,0.713-0.069,1.036-0.209
		c0.322-0.142,0.604-0.332,0.843-0.572c0.24-0.239,0.431-0.521,0.572-0.843c0.14-0.324,0.21-0.669,0.21-1.037
		c0-0.364-0.07-0.709-0.21-1.033C250.418,53.29,250.227,53.007,249.987,52.767z M249.655,55.313c-0.088,0.211-0.21,0.396-0.36,0.558
		c-0.151,0.161-0.328,0.29-0.531,0.385c-0.202,0.096-0.421,0.142-0.654,0.142c-0.231,0-0.452-0.046-0.653-0.142
		c-0.204-0.095-0.381-0.224-0.532-0.385c-0.153-0.162-0.271-0.347-0.36-0.558c-0.088-0.21-0.131-0.432-0.131-0.665
		c0-0.23,0.043-0.451,0.131-0.662c0.089-0.212,0.208-0.398,0.36-0.558c0.151-0.157,0.328-0.285,0.532-0.381
		c0.201-0.097,0.422-0.144,0.653-0.144c0.233,0,0.452,0.047,0.654,0.144c0.204,0.096,0.38,0.224,0.531,0.381
		c0.15,0.159,0.272,0.346,0.36,0.558c0.087,0.211,0.131,0.432,0.131,0.662C249.786,54.881,249.743,55.103,249.655,55.313z"/>
	<path fill="#4D4D4D" d="M258.949,54.865c0.194-0.29,0.29-0.629,0.29-1.017c0-0.258-0.043-0.494-0.129-0.712
		c-0.087-0.218-0.208-0.404-0.362-0.559c-0.153-0.159-0.34-0.277-0.557-0.365s-0.459-0.131-0.719-0.131h-2.331v5.129h0.98v-1.634
		h0.972c0.194,0.282,0.39,0.558,0.586,0.829c0.196,0.271,0.396,0.538,0.599,0.805h1.172c-0.421-0.577-0.847-1.152-1.278-1.723
		C258.496,55.36,258.755,55.154,258.949,54.865z M257.745,54.658c-0.097,0.034-0.188,0.052-0.276,0.052h-1.348v-1.757h1.348
		c0.172,0,0.309,0.03,0.411,0.098c0.104,0.064,0.183,0.145,0.239,0.237c0.055,0.093,0.092,0.192,0.109,0.295
		c0.02,0.103,0.029,0.19,0.029,0.266c0,0.144-0.025,0.27-0.074,0.377c-0.05,0.108-0.11,0.198-0.185,0.271
		C257.925,54.568,257.839,54.621,257.745,54.658z"/>
	<polygon fill="#4D4D4D" points="267.912,52.091 266.707,52.091 264.669,54.688 264.669,52.082 263.687,52.082 263.687,57.211 
		264.669,57.211 264.669,54.879 266.818,57.211 268.114,57.211 265.804,54.738 	"/>
	<path fill="#4D4D4D" d="M107.074,22.907h20.654c0.745,0,1.378,0.633,1.378,1.415c0,0.743-0.633,1.339-1.378,1.339h-22.702
		c-0.968,0-1.787,0.819-1.787,1.787s0.819,1.785,1.787,1.785h22.555c2.753,0,4.985-2.157,4.985-4.911
		c0-2.755-2.232-4.987-4.985-4.987h-20.583c-0.745,0-1.413-0.633-1.413-1.377c0-0.782,0.668-1.378,1.413-1.378h22.667
		c0.968,0,1.787-0.817,1.787-1.785s-0.819-1.788-1.787-1.788h-22.59c-2.755,0-4.952,2.197-4.952,4.951
		C102.122,20.71,104.318,22.907,107.074,22.907z"/>
	<path fill="#4D4D4D" d="M139.188,29.233c0.968,0,1.788-0.817,1.788-1.785v-8.113c0-1.043,0-1.527,0.186-1.527
		c0.149,0,0.484,0.335,1.042,1.005l8.188,9.305c0.633,0.742,1.635,1.115,2.716,1.115c1.08,0,2.085-0.373,2.718-1.115l8.185-9.305
		c0.559-0.633,0.895-1.005,1.043-1.005c0.187,0,0.187,0.484,0.187,1.527v8.113c0,0.968,0.819,1.785,1.787,1.785
		s1.785-0.817,1.785-1.785V16.58c0-1.972-1.227-3.573-3.201-3.573c-1.191,0-2.232,0.596-2.903,1.526h-0.036l-8.523,9.752
		c-0.223,0.261-0.67,0.594-1.042,0.594c-0.373,0-0.819-0.333-1.042-0.594l-8.561-9.752c-0.78-0.856-1.71-1.526-2.903-1.526
		c-1.974,0-3.2,1.601-3.2,3.573v10.869C137.403,28.417,138.222,29.233,139.188,29.233z"/>
	<path fill="#4D4D4D" d="M175.436,29.233c0.521,0,1.043-0.261,1.378-0.67l8.747-11.611c0.296-0.373,0.854-1.006,1.413-1.006
		c0.559,0,1.117,0.596,1.453,1.006l8.671,11.576c0.335,0.444,0.857,0.705,1.416,0.705c0.968,0,1.785-0.817,1.785-1.785
		c0-0.484-0.223-0.931-0.521-1.266l-9.044-12.096c-0.855-1.154-2.27-1.824-3.759-1.824c-1.599,0-3.051,0.782-3.908,1.936
		l-9.044,12.17c-0.259,0.298-0.371,0.67-0.371,1.08C173.65,28.417,174.467,29.233,175.436,29.233z"/>
	<path fill="#4D4D4D" d="M206.919,29.233c0.931,0,1.787-0.817,1.787-1.785v-3.163c0-0.745,0.521-1.266,1.155-1.378h7.406
		c5.36,0,9.901,2.828,13.918,5.807c0.374,0.298,0.781,0.519,1.265,0.519c0.968,0,1.788-0.817,1.788-1.785
		c0-0.67-0.484-1.191-1.006-1.601c-1.45-1.117-2.827-2.121-4.168-2.94h0.149c2.753,0,5.025-2.197,5.025-4.95
		c0-2.753-2.271-4.951-5.025-4.951h-22.294c-0.966,0-1.786,0.819-1.786,1.788s0.819,1.785,1.786,1.785h22.443
		c0.746,0,1.416,0.633,1.416,1.378c0,0.782-0.67,1.377-1.416,1.377h-19.725c-2.53,0-4.503,2.045-4.503,4.541v3.573
		C205.133,28.417,205.953,29.233,206.919,29.233z"/>
	<path fill="#4D4D4D" d="M240.711,16.58h11.165v10.869c0,0.968,0.819,1.785,1.787,1.785s1.787-0.817,1.787-1.785V16.58h11.016
		c0.969,0,1.785-0.817,1.785-1.785s-0.816-1.788-1.785-1.788H240.86c-0.968,0-1.788,0.819-1.788,1.788
		C239.072,15.723,239.817,16.507,240.711,16.58z"/>
	<path fill="#4D4D4D" d="M112.449,35.898c0-0.308-0.261-0.57-0.57-0.57h-8.435c-0.31,0-0.57,0.263-0.57,0.57
		c0,0.31,0.26,0.572,0.57,0.572h8.435C112.188,36.471,112.449,36.208,112.449,35.898z"/>
	<path fill="#4D4D4D" d="M103.634,37.351c-0.523,0-0.76,0.107-0.76,0.535v2.057c0,0.31,0.26,0.57,0.57,0.57
		c0.309,0,0.572-0.26,0.572-0.57v-1.45h7.6c0.31,0,0.572-0.263,0.572-0.572c0-0.308-0.262-0.57-0.572-0.57H103.634z"/>
	<path fill="#4D4D4D" d="M113.998,35.898v4.045c0,0.31,0.261,0.57,0.57,0.57s0.57-0.26,0.57-0.57v-4.045
		c0-0.308-0.261-0.57-0.57-0.57S113.998,35.591,113.998,35.898z"/>
	<path fill="#4D4D4D" d="M124.786,35.898v2.344c0,0.572-0.037,0.879-0.274,0.879c-0.131,0-0.321-0.105-0.617-0.284l-5.448-3.332
		c-0.179-0.106-0.394-0.178-0.619-0.178c-0.644,0-1.141,0.512-1.141,1.154v3.461c0,0.31,0.261,0.57,0.57,0.57
		c0.31,0,0.571-0.26,0.571-0.57V37.6c0-0.57,0.035-0.879,0.274-0.879c0.129,0,0.321,0.107,0.617,0.286l5.448,3.33
		c0.178,0.108,0.392,0.178,0.619,0.178c0.641,0,1.141-0.511,1.141-1.154v-3.461c0-0.308-0.261-0.57-0.57-0.57
		S124.786,35.591,124.786,35.898z"/>
	<path fill="#4D4D4D" d="M130.485,35.709l-2.891,3.89c-0.084,0.096-0.119,0.213-0.119,0.344c0,0.31,0.262,0.57,0.572,0.57
		c0.167,0,0.332-0.083,0.439-0.213l2.797-3.712c0.094-0.118,0.272-0.319,0.45-0.319c0.179,0,0.356,0.19,0.465,0.319l2.77,3.701
		c0.108,0.142,0.274,0.225,0.454,0.225c0.31,0,0.57-0.26,0.57-0.57c0-0.154-0.072-0.298-0.167-0.404l-2.89-3.866
		c-0.272-0.369-0.726-0.582-1.202-0.582C131.222,35.091,130.759,35.34,130.485,35.709z"/>
	<path fill="#4D4D4D" d="M145.64,35.898v2.344c0,0.572-0.035,0.879-0.274,0.879c-0.132,0-0.322-0.105-0.618-0.284l-5.448-3.332
		c-0.178-0.106-0.395-0.178-0.619-0.178c-0.643,0-1.143,0.512-1.143,1.154v3.461c0,0.31,0.263,0.57,0.573,0.57
		c0.309,0,0.57-0.26,0.57-0.57V37.6c0-0.57,0.035-0.879,0.274-0.879c0.129,0,0.321,0.107,0.617,0.286l5.448,3.33
		c0.179,0.108,0.393,0.178,0.62,0.178c0.641,0,1.141-0.511,1.141-1.154v-3.461c0-0.308-0.26-0.57-0.57-0.57
		C145.9,35.328,145.64,35.591,145.64,35.898z"/>
	<path fill="#4D4D4D" d="M150.766,36.471h6.687c0.308,0,0.571-0.262,0.571-0.572c0-0.308-0.263-0.57-0.571-0.57h-6.935
		c-1.368,0-2.19,1.392-2.19,2.593c0,1.178,0.774,2.592,2.072,2.592h7.053c0.308,0,0.571-0.26,0.571-0.57s-0.263-0.57-0.571-0.57
		h-6.687c-1.093,0-1.33-0.88-1.33-1.452C149.436,37.351,149.672,36.471,150.766,36.471z"/>
	<path fill="#4D4D4D" d="M159.569,35.898v4.045c0,0.31,0.262,0.57,0.572,0.57c0.31,0,0.572-0.26,0.572-0.57v-4.045
		c0-0.308-0.263-0.57-0.572-0.57C159.832,35.328,159.569,35.591,159.569,35.898z"/>
	<path fill="#4D4D4D" d="M166.517,35.091c-0.511,0-0.976,0.249-1.248,0.618l-2.89,3.89c-0.084,0.096-0.12,0.213-0.12,0.344
		c0,0.31,0.262,0.57,0.571,0.57c0.167,0,0.334-0.083,0.439-0.213l2.796-3.712c0.094-0.118,0.273-0.319,0.451-0.319
		c0.179,0,0.356,0.19,0.465,0.319l2.771,3.701c0.108,0.142,0.272,0.225,0.453,0.225c0.309,0,0.57-0.26,0.57-0.57
		c0-0.154-0.071-0.298-0.167-0.404l-2.891-3.866C167.445,35.305,166.993,35.091,166.517,35.091z"/>
	<path fill="#4D4D4D" d="M173.952,40.514h7.102c0.308,0,0.571-0.26,0.571-0.57s-0.263-0.57-0.571-0.57h-7.137
		c-0.237,0-0.453-0.202-0.453-0.441v-3.034c0-0.308-0.272-0.57-0.57-0.57c-0.31,0-0.571,0.263-0.571,0.57v3.034
		C172.323,39.813,173.072,40.514,173.952,40.514z"/>
	<path fill="#4D4D4D" d="M197.065,39.374h-7.255c-0.31,0-0.57,0.26-0.57,0.57s0.26,0.57,0.57,0.57h7.208
		c0.88,0,1.593-0.689,1.593-1.57c0-0.88-0.713-1.593-1.593-1.593h-6.577c-0.239,0-0.453-0.202-0.453-0.441
		c0-0.25,0.214-0.439,0.453-0.439h7.243c0.308,0,0.57-0.262,0.57-0.572c0-0.308-0.262-0.57-0.57-0.57h-7.22
		c-0.88,0-1.583,0.702-1.583,1.582c0,0.88,0.703,1.583,1.583,1.583h6.601c0.239,0,0.441,0.202,0.441,0.451
		C197.507,39.183,197.305,39.374,197.065,39.374z"/>
	<path fill="#4D4D4D" d="M202.229,40.514h5.425c1.368,0,2.188-1.392,2.188-2.592c0-1.176-0.773-2.521-2.071-2.593h-5.422
		c-1.368,0-2.189,1.392-2.189,2.593C200.16,39.099,200.934,40.443,202.229,40.514z M202.598,36.471h4.805
		c1.096,0,1.333,0.88,1.333,1.451c0,0.572-0.237,1.452-1.333,1.452h-4.805c-1.094,0-1.333-0.88-1.333-1.452
		C201.265,37.351,201.504,36.471,202.598,36.471z"/>
	<path fill="#4D4D4D" d="M211.961,35.328c-0.312,0-0.572,0.263-0.572,0.57v3.034c0,0.88,0.749,1.582,1.628,1.582h7.103
		c0.31,0,0.57-0.26,0.57-0.57s-0.26-0.57-0.57-0.57h-7.137c-0.238,0-0.451-0.202-0.451-0.441v-3.034
		C212.532,35.591,212.257,35.328,211.961,35.328z"/>
	<path fill="#4D4D4D" d="M222.811,35.34c-0.31,0-0.572,0.262-0.572,0.572v2.009c0,1.178,0.771,2.522,2.069,2.592h5.424
		c1.368,0,2.187-1.392,2.187-2.592v-2.009c0-0.31-0.261-0.572-0.57-0.572c-0.308,0-0.57,0.262-0.57,0.572v2.009
		c0,0.572-0.239,1.452-1.333,1.452h-4.733c-1.096,0-1.332-0.88-1.332-1.452v-2.009C223.381,35.603,223.118,35.34,222.811,35.34z"/>
	<path fill="#4D4D4D" d="M238.13,40.514c0.31,0,0.572-0.26,0.572-0.57v-3.473h3.52c0.31,0,0.572-0.262,0.572-0.572
		c0-0.308-0.262-0.57-0.572-0.57h-8.182c-0.31,0-0.572,0.263-0.572,0.57c0,0.298,0.239,0.549,0.524,0.572h3.567v3.473
		C237.56,40.253,237.823,40.514,238.13,40.514z"/>
	<path fill="#4D4D4D" d="M244.34,35.898v4.045c0,0.31,0.263,0.57,0.573,0.57c0.309,0,0.57-0.26,0.57-0.57v-4.045
		c0-0.308-0.261-0.57-0.57-0.57C244.603,35.328,244.34,35.591,244.34,35.898z"/>
	<path fill="#4D4D4D" d="M249.218,35.328c-1.368,0-2.189,1.392-2.189,2.593c0,1.178,0.774,2.522,2.07,2.592h5.425
		c1.368,0,2.188-1.392,2.188-2.592c0-1.176-0.774-2.521-2.07-2.593H249.218z M255.605,37.921c0,0.572-0.237,1.452-1.333,1.452
		h-4.805c-1.094,0-1.333-0.88-1.333-1.452c0-0.57,0.239-1.451,1.333-1.451h4.805C255.368,36.471,255.605,37.351,255.605,37.921z"/>
	<path fill="#4D4D4D" d="M266.358,35.898v2.344c0,0.572-0.035,0.879-0.272,0.879c-0.131,0-0.321-0.105-0.619-0.284l-5.449-3.332
		c-0.177-0.106-0.392-0.178-0.617-0.178c-0.643,0-1.143,0.512-1.143,1.154v3.461c0,0.31,0.263,0.57,0.572,0.57
		c0.311,0,0.571-0.26,0.571-0.57V37.6c0-0.57,0.035-0.879,0.272-0.879c0.131,0,0.323,0.107,0.619,0.286l5.448,3.33
		c0.178,0.108,0.392,0.178,0.617,0.178c0.643,0,1.143-0.511,1.143-1.154v-3.461c0-0.308-0.261-0.57-0.57-0.57
		C266.621,35.328,266.358,35.591,266.358,35.898z"/>
	<path fill="#4D4D4D" d="M102.94,47.509h164.494c0.451,0,0.818-0.365,0.818-0.818c0-0.452-0.367-0.818-0.818-0.818H102.94
		c-0.451,0-0.818,0.366-0.818,0.818C102.123,47.144,102.489,47.509,102.94,47.509z"/>
	<path fill="#4D4D4D" d="M85.583,0H1.062L0.83,1.133c-0.104,0.516-2.518,12.819,1.402,28.73c2.302,9.346,6.328,17.981,11.968,25.665
		c7.036,9.588,16.607,17.701,28.45,24.115l0.672,0.364l0.673-0.364c11.843-6.414,21.415-14.527,28.45-24.115
		c5.641-7.684,9.666-16.319,11.969-25.665c3.917-15.911,1.505-28.214,1.399-28.73L85.583,0z M81.638,29.308
		c-3.464,13.965-12.93,33.48-38.316,47.481C17.937,62.788,8.469,43.273,5.004,29.308C1.873,16.681,2.933,6.191,3.417,2.826h79.811
		C83.709,6.191,84.771,16.681,81.638,29.308z"/>
	<path fill="#FBAA26" d="M59.775,47.204c-2.688,3.918-5.857,7.417-9.497,10.49c-0.866,0.73-1.758,1.438-2.675,2.119
		c-1.371,1.015-2.796,1.976-4.28,2.883c-1.488-0.907-2.913-1.868-4.283-2.883c-0.917-0.682-1.809-1.389-2.675-2.119
		c-0.111-0.093-0.225-0.189-0.335-0.287c-0.157-0.134-0.311-0.269-0.466-0.405c-0.155-0.134-0.309-0.271-0.462-0.412
		c-0.152-0.136-0.306-0.275-0.457-0.416c-0.824-0.756-1.621-1.537-2.389-2.345h4.213v-8.544h-0.439H15.796
		c1.023,1.96,2.134,3.854,3.336,5.674c0.141,0.216,0.284,0.429,0.429,0.644c0.146,0.213,0.291,0.425,0.437,0.637
		c0.147,0.212,0.294,0.422,0.443,0.632c0.143,0.201,0.288,0.401,0.433,0.599c0.01,0.018,0.024,0.033,0.036,0.05
		c0.076,0.104,0.153,0.207,0.229,0.31c0.061,0.083,0.122,0.165,0.183,0.246c0.014,0.018,0.025,0.036,0.039,0.051
		c0.152,0.2,0.302,0.402,0.457,0.6c0.154,0.204,0.314,0.407,0.473,0.607c0.158,0.2,0.319,0.4,0.48,0.6
		c0.004,0.009,0.012,0.016,0.018,0.023c0.157,0.192,0.312,0.383,0.468,0.571c0.449,0.54,0.908,1.074,1.374,1.597
		c0.138,0.155,0.277,0.31,0.416,0.463c0.027,0.029,0.053,0.061,0.08,0.088c0.132,0.146,0.263,0.285,0.396,0.429
		c0.032,0.037,0.067,0.074,0.102,0.11c0.145,0.157,0.294,0.314,0.443,0.471c0.163,0.172,0.327,0.343,0.492,0.512
		c2.958,3.037,6.234,5.777,9.808,8.193c0.874,0.592,1.766,1.164,2.675,1.715c0.723,0.44,1.456,0.87,2.201,1.282l2.082,1.159
		l2.079-1.159c0.744-0.412,1.476-0.842,2.201-1.282c0.909-0.551,1.801-1.123,2.675-1.715c8.127-5.5,14.714-12.656,19.527-21.186
		c0.356-0.631,0.7-1.271,1.037-1.919h-9.815C60.621,45.936,60.207,46.577,59.775,47.204z"/>
	<path fill="#FBAA26" d="M78.601,6.508h-39.56V56.43c1.362,1.095,2.789,2.129,4.283,3.103c1.493-0.974,2.917-2.008,4.28-3.103
		V15.071H70.26c-0.041,0.793-0.106,1.691-0.198,2.673h8.601c0.357-4.279,0.202-7.008,0.186-7.221L78.601,6.508z"/>
	<path fill="#FBAA26" d="M22.07,38.669l2.955-0.005l11.341-0.024v-8.539H18.925c-0.263-0.909-0.498-1.787-0.712-2.661
		c-1.225-5.025-1.676-9.407-1.829-12.37h19.981V6.508H8.043l-0.25,4.014c-0.021,0.35-0.423,7.381,1.641,16.938
		c0.188,0.872,0.394,1.762,0.627,2.673c0.274,1.082,0.578,2.189,0.921,3.316c0.545,1.789,1.154,3.533,1.823,5.24L22.07,38.669z"/>
	<path fill="#FBAA26" d="M73.89,38.564c0.649-1.667,1.243-3.37,1.773-5.115c0.353-1.168,0.668-2.311,0.953-3.428H73.89v0H56.521v0
		h-6.243v8.592l1.917-0.004v-0.043h9.473c0,0,0,0,0-0.001h2.954c0,0,0,0.001,0,0.001L73.89,38.564
		C73.89,38.565,73.89,38.565,73.89,38.564L73.89,38.564z"/>
</g>
</svg>
