<?xml version="1.0" encoding="UTF-8"?>
<!-- Generator: Adobe Illustrator 25.2.1, SVG Export Plug-In . SVG Version: 6.00 Build 0)  -->
<svg xmlns="http://www.w3.org/2000/svg" xmlns:xlink="http://www.w3.org/1999/xlink" version="1.1" id="Capa_1" x="0px" y="0px" viewBox="0 0 512 512" style="enable-background:new 0 0 512 512;" xml:space="preserve" width="512" height="512">
<g>
	<g>
		<path style="fill:#241726;" d="M504.494,290.282c-2.876,0-10.033-10.155-14.044-16.208c-0.234-0.354-0.255-0.807-0.054-1.181    c5.517-10.284,13.588-25.703,17.138-33.273c-5.656,6.653-17.478,21.731-25.274,31.88c-0.196,0.254-0.489,0.416-0.808,0.445    c-0.101,0.009-2.492,0.224-5.355,0.224l0,0c-7.615,0-9.054-1.54-9.526-2.047c-0.264-0.282-0.642-0.909-0.199-1.928    c2.07-4.769,39.553-33.916,43.896-34.158c0.248-0.031,0.443,0.026,0.644,0.124c0.027,0.011,0.053,0.025,0.079,0.038    c0.763,0.415,1.217,1.027,0.916,8.057c-0.318,7.454-3.618,46.527-6.732,47.887C505.029,290.207,504.653,290.282,504.494,290.282z     M492.75,273.374c4.252,6.356,9.466,13.175,11.413,14.423c1.747-4.716,5.187-35.54,5.537-47.464    C507.464,245.321,502.68,254.852,492.75,273.374z M468.637,268.834c0.742,0.416,2.655,1.033,7.46,1.033    c2.006,0,3.81-0.113,4.648-0.175c8.532-11.102,18.315-23.619,24.208-30.468C493.823,246.563,470.926,265.449,468.637,268.834z"/>
		<path style="fill:#241726;" d="M490.861,288.039c-0.227,0-0.422-0.044-0.575-0.097c-1.876-0.649-6.329-9.22-9.735-16.296    c-0.275-0.572-0.035-1.26,0.539-1.537c0.572-0.272,1.259-0.035,1.537,0.539c3.038,6.313,6.91,13.504,8.281,14.958    c0.795-0.779,2.258-3.849,3.308-7.01c0.201-0.603,0.851-0.924,1.456-0.73c0.604,0.201,0.93,0.852,0.73,1.456    c-0.578,1.738-2.623,7.49-4.68,8.505C491.406,287.984,491.113,288.039,490.861,288.039z"/>
	</g>
	<g>
		<path style="fill:#241726;" d="M65.972,139.547c-3.805,0.002-39.894-27.816-43.572-32.59c-0.361-0.469-0.706-1.035-0.535-1.681    c0.024-0.09,0.058-0.176,0.101-0.255c0.049-0.102,0.111-0.198,0.185-0.285c0,0,0,0,0.001-0.001    c0.018-0.021,0.039-0.044,0.063-0.066c0.056-0.056,0.117-0.107,0.181-0.148c0.048-0.033,0.1-0.063,0.157-0.091    c4.69-2.729,41.239-8.656,51.25-8.656c2.205,0,4.566,0.142,4.673,1.837c0.242,3.806-7.359,10.728-8.885,12.076    c-0.241,0.213-0.559,0.307-0.878,0.283c-0.314-0.032-28.356-2.87-40.341-3.426c8.017,2.623,24.595,7.282,35.773,10.3    c0.409,0.111,0.724,0.437,0.821,0.85c4.761,20.386,2.371,21.404,1.587,21.738C66.41,139.493,66.127,139.546,65.972,139.547z     M27.211,108.548c8.912,7.926,33.698,26.576,38.329,28.54c0.427-2.275-0.956-10.745-2.661-18.2    C42.588,113.403,32.374,110.341,27.211,108.548z M30.684,104.36c11.992,0.696,34.001,2.89,37.756,3.269    c3.153-2.849,7.203-7.246,7.692-9.398c-0.359-0.072-1.048-0.154-2.329-0.154C64.81,98.077,42.208,101.799,30.684,104.36z"/>
		<path style="fill:#241726;" d="M73.04,128.216c-2.548,0-6.906-1.923-8.341-2.59c-0.577-0.269-0.826-0.953-0.559-1.53    c0.27-0.577,0.953-0.825,1.53-0.559c3.051,1.419,6.323,2.491,7.403,2.402c-0.071-1.753-2.687-9.643-5.233-16.287    c-0.228-0.594,0.069-1.259,0.662-1.487c0.595-0.227,1.26,0.069,1.488,0.663c2.811,7.333,5.991,16.455,5.176,18.263    c-0.142,0.312-0.441,0.733-1.069,0.966C73.802,128.168,73.444,128.215,73.04,128.216z"/>
	</g>
	<g>
		<path style="fill:#FFFFFF;" d="M55.912,393.298c0,0-2.16-16.399,13.625-11.093c15.785,5.306,10.642,20.322,4.624,15.183    c-6.018-5.138,5.274-22.565,17.353-14.805c12.079,7.76,9.378,22.817,0.809,23.928c-8.568,1.111,5.187-17.532,15.98-6.018    c10.794,11.514-12.772,32.505-22.41,24.787s-2.095-20.174,0.217-12.583c2.312,7.592-3.923,15.036-21.016,14.742    c-17.093-0.294-9.313-26.592-3.338-18.937c5.975,7.655-3.944,16.294-16.002,7.276C33.697,406.761,47.452,388.118,55.912,393.298z"/>
		<path style="fill:#241726;" d="M66.067,428.6l-0.993-0.009c-5.617-0.097-9.575-2.969-10.979-7.918    c-2.947-0.38-6.051-1.743-9.03-3.971c-4.746-3.55-6.353-8.936-4.41-14.78c1.99-5.982,7.294-10.669,12.075-10.669    c0.665,0,1.309,0.085,1.929,0.256c-0.012-2.301,0.36-6.145,2.66-8.77c2.602-2.97,6.88-3.544,12.585-1.627    c2.178,0.732,4.088,1.681,5.694,2.828c4.574-4.797,11.064-5.843,16.538-2.325c5.218,3.352,8.394,8.503,8.673,13.963    c3.059,0.101,5.861,1.488,8.334,4.127c3.377,3.602,4,8.44,1.754,13.623c-3.407,7.867-12.716,14.767-19.921,14.768    c-2.262,0-4.215-0.645-5.803-1.917c-0.742-0.594-1.413-1.236-2.008-1.916C79.381,427.105,73.506,428.599,66.067,428.6z     M56.54,420.759c0.984,2.721,3.292,5.439,8.575,5.53l0.952,0.009c8.532-0.001,13.211-1.989,15.732-3.888    c-2.39-3.901-2.199-8.157-0.858-10.798c0.784-1.544,1.926-2.429,3.134-2.429c0.81,0,2.294,0.414,3.137,3.18    c1.159,3.806,0.308,7.528-2.33,10.366c0.508,0.585,1.088,1.139,1.73,1.654c1.169,0.937,2.638,1.411,4.364,1.411    c6.287-0.001,14.774-6.378,17.808-13.381c1.314-3.034,2.152-7.427-1.321-11.133c-2.033-2.168-4.289-3.31-6.711-3.399    c-0.535,5.243-3.829,9.196-8.282,9.773c-2.932,0.385-3.923-1.161-3.98-2.592c-0.125-3.099,4.322-8.303,10.021-9.316    c-0.225-4.735-3.018-9.236-7.62-12.192c-4.52-2.904-9.693-2.058-13.512,1.859c3.711,3.56,4.398,7.93,3.355,10.851    c-0.734,2.054-2.31,3.332-4.111,3.333h-0.001c-1.079,0-2.189-0.461-3.209-1.331c-3.334-2.846-2.279-8.386,0.71-12.545    c-1.393-0.971-3.054-1.784-4.952-2.422c-4.744-1.597-8.145-1.291-10.12,0.962c-2.723,3.105-2.005,8.831-1.998,8.889    c0.058,0.441-0.142,0.875-0.514,1.117c-0.373,0.242-0.851,0.249-1.229,0.016c-0.785-0.48-1.653-0.724-2.579-0.724    c-3.786,0-8.222,4.079-9.889,9.093c-0.762,2.29-1.936,8.064,3.603,12.208c2.403,1.797,4.861,2.958,7.192,3.41    c-0.406-3.834,0.577-8.038,2.545-10.48c0.966-1.199,2.096-1.833,3.268-1.833c0.812,0,2.03,0.319,3.216,1.84    c2.136,2.737,2.621,5.825,1.329,8.473C62.728,418.861,59.913,420.538,56.54,420.759z M84.075,411.485    c-0.16,0-0.632,0.286-1.081,1.168c-0.966,1.901-1.129,5.117,0.528,8.136c1.828-2.184,2.358-4.892,1.485-7.758    C84.617,411.748,84.173,411.485,84.075,411.485z M59.448,408.258c-0.444,0-0.967,0.346-1.474,0.975    c-1.445,1.793-2.505,5.621-1.993,9.245c2.73-0.057,4.996-1.281,5.943-3.22c0.891-1.826,0.499-4.03-1.075-6.046    C60.509,408.777,59.991,408.258,59.448,408.258z M98.404,398.115c-4.52,1.043-7.679,5.185-7.611,6.855    c0.008,0.196,0.018,0.44,0.837,0.44c0.166,0,0.349-0.013,0.545-0.039C95.412,404.95,97.845,402.046,98.404,398.115z     M75.901,387.185c-2.538,3.569-3.022,7.594-0.992,9.327c1.525,1.302,2.993,0.834,3.657-1.024    C79.342,393.312,78.77,390.007,75.901,387.185z"/>
	</g>
	<g>
		<path style="fill:#FFFFFF;" d="M387.522,135.38c0,0-2.16-16.399,13.625-11.093c15.785,5.306,10.642,20.321,4.624,15.183    c-6.018-5.138,5.273-22.565,17.353-14.805c12.079,7.76,9.378,22.817,0.81,23.928c-8.568,1.111,5.187-17.532,15.98-6.018    c10.793,11.514-12.772,32.505-22.41,24.787c-9.637-7.718-2.095-20.174,0.217-12.583c2.312,7.592-3.923,15.036-21.016,14.742    c-17.093-0.294-9.313-26.592-3.338-18.937c5.975,7.655-3.944,16.294-16.002,7.277C365.307,148.843,379.062,130.2,387.522,135.38z"/>
		<path style="fill:#241726;" d="M397.677,170.682l-0.993-0.009c-5.617-0.097-9.575-2.969-10.979-7.918    c-2.947-0.38-6.051-1.743-9.03-3.971c-4.746-3.55-6.353-8.936-4.41-14.78c1.99-5.982,7.294-10.669,12.075-10.669    c0.665,0,1.309,0.086,1.928,0.256c-0.012-2.301,0.36-6.145,2.66-8.77c2.601-2.969,6.878-3.547,12.585-1.627    c2.178,0.732,4.089,1.681,5.694,2.828c4.573-4.796,11.066-5.844,16.538-2.325c5.219,3.352,8.394,8.503,8.673,13.963    c3.058,0.101,5.861,1.488,8.334,4.127c3.377,3.602,4,8.44,1.754,13.622c-3.407,7.867-12.716,14.767-19.921,14.768    c-2.262,0-4.216-0.645-5.803-1.917c-0.742-0.594-1.413-1.236-2.008-1.916C410.99,169.186,405.115,170.681,397.677,170.682z     M388.15,162.84c0.984,2.721,3.292,5.439,8.575,5.53l0.952,0.009c8.532-0.001,13.211-1.989,15.732-3.888    c-2.389-3.901-2.199-8.157-0.858-10.798c0.784-1.544,1.926-2.429,3.134-2.429c0.81,0,2.294,0.414,3.137,3.18    c1.159,3.806,0.308,7.528-2.33,10.366c0.508,0.585,1.088,1.139,1.73,1.654c1.169,0.937,2.638,1.411,4.364,1.411    c6.287-0.001,14.774-6.378,17.808-13.381c1.315-3.034,2.152-7.427-1.321-11.133c-2.033-2.168-4.289-3.31-6.711-3.399    c-0.535,5.243-3.829,9.196-8.282,9.772c-2.932,0.38-3.923-1.161-3.98-2.592c-0.125-3.099,4.322-8.303,10.021-9.316    c-0.225-4.735-3.018-9.236-7.62-12.192c-4.519-2.904-9.694-2.058-13.512,1.859c3.711,3.56,4.398,7.93,3.355,10.851    c-0.734,2.054-2.31,3.332-4.111,3.333h-0.001c-1.079,0-2.189-0.461-3.209-1.331c-3.334-2.846-2.279-8.386,0.71-12.545    c-1.393-0.972-3.054-1.785-4.952-2.422c-4.745-1.597-8.145-1.29-10.12,0.963c-2.723,3.105-2.005,8.831-1.998,8.889    c0.058,0.441-0.142,0.875-0.514,1.117c-0.374,0.241-0.851,0.247-1.229,0.016c-0.785-0.48-1.653-0.724-2.579-0.724    c-3.786,0-8.222,4.079-9.889,9.093c-0.762,2.29-1.936,8.064,3.603,12.208c2.403,1.797,4.861,2.958,7.192,3.41    c-0.406-3.834,0.577-8.037,2.545-10.48c0.966-1.199,2.096-1.833,3.268-1.833c0.812,0,2.03,0.319,3.216,1.84    c2.136,2.737,2.621,5.825,1.329,8.473C394.338,160.942,391.523,162.619,388.15,162.84z M415.685,153.567    c-0.16,0-0.632,0.286-1.081,1.168c-0.966,1.901-1.129,5.117,0.529,8.136c1.828-2.184,2.358-4.892,1.485-7.758    C416.227,153.83,415.783,153.567,415.685,153.567z M391.058,150.339c-0.444,0-0.967,0.346-1.474,0.975    c-1.445,1.794-2.505,5.621-1.992,9.245c2.73-0.057,4.996-1.281,5.943-3.22c0.891-1.826,0.499-4.03-1.075-6.046    C392.119,150.858,391.601,150.339,391.058,150.339z M430.014,140.196c-4.52,1.043-7.679,5.185-7.611,6.855    c0.008,0.196,0.018,0.44,0.837,0.44c0.166,0,0.349-0.014,0.545-0.039C427.022,147.031,429.455,144.127,430.014,140.196z     M407.51,129.266c-2.538,3.569-3.022,7.594-0.992,9.327c1.522,1.303,2.992,0.834,3.657-1.024    C410.952,135.393,410.38,132.089,407.51,129.266z"/>
	</g>
	<path style="fill:#241726;" d="M62.462,189.748c-0.002,0-0.033,0-0.033,0c-4.392-0.02-7.947-3.607-7.929-7.996   c0.018-4.372,3.59-7.928,7.962-7.928c4.425,0.02,7.98,3.607,7.962,7.996C70.406,186.191,66.833,189.748,62.462,189.748z    M62.486,176.126c-3.132,0-5.669,2.528-5.683,5.635c-0.014,3.12,2.515,5.671,5.636,5.684l0.024,1.151v-1.151   c3.107,0,5.646-2.528,5.659-5.636C68.135,178.69,65.606,176.14,62.486,176.126z"/>
	<path style="fill:#241726;" d="M305.413,80.362c-0.002,0-0.033,0-0.033,0c-4.392-0.02-7.948-3.607-7.93-7.996   c0.018-4.372,3.59-7.928,7.962-7.928c4.425,0.02,7.98,3.607,7.962,7.996C313.356,76.806,309.783,80.362,305.413,80.362z    M305.436,66.741c-3.132,0-5.669,2.528-5.683,5.635c-0.013,3.12,2.515,5.671,5.636,5.684l0.024,1.151V78.06   c3.107,0,5.646-2.528,5.659-5.636C311.085,69.305,308.557,66.755,305.436,66.741z"/>
	<path style="fill:#241726;" d="M113.125,455.726c-0.002,0-0.033,0-0.033,0c-4.392-0.02-7.948-3.607-7.929-7.996   c0.018-4.372,3.59-7.928,7.962-7.928c4.425,0.02,7.98,3.607,7.962,7.996C121.068,452.17,117.496,455.726,113.125,455.726z    M113.149,442.105c-3.132,0-5.669,2.528-5.683,5.635c-0.013,3.12,2.515,5.671,5.636,5.684l0.024,1.151v-1.151   c3.107,0,5.646-2.528,5.659-5.636C118.798,444.669,116.269,442.118,113.149,442.105z"/>
	<path style="fill:#241726;" d="M439.076,209.293c-0.002,0-0.033,0-0.034,0c-4.391-0.02-7.946-3.607-7.928-7.996   c0.019-4.372,3.591-7.928,7.962-7.928c4.425,0.02,7.98,3.607,7.962,7.996C447.019,205.736,443.446,209.293,439.076,209.293z    M439.099,195.671c-3.13,0-5.669,2.528-5.683,5.636c-0.013,3.119,2.515,5.669,5.636,5.683l0.024,1.151v-1.151   c3.107,0,5.646-2.528,5.659-5.636C444.748,198.235,442.219,195.685,439.099,195.671z"/>
	<g>
		<path style="fill:#E24E68;" d="M245.932,312.509c0,0-146.552-99.33-94.445-164.464c51.869-64.836,89.56,8.956,92.817,13.841    c3.257,4.885,9.77-77.347,83.046-33.381S271.985,286.455,245.932,312.509z"/>
		<path style="fill:#241726;" d="M226.044,256.742c-0.346,0-0.695-0.09-1.022-0.27c-3.445-1.891-6.064-16.492-9.667-38.551    c-1.597-9.784-3.246-19.882-4.373-22.44c-1.347,1.804-3.636,9.08-5.347,14.518c-4.12,13.096-6.369,19.319-9.18,19.787    c-4.946,0.831-54.324-1.515-56.423-1.614c-0.635-0.03-1.126-0.57-1.095-1.205c0.03-0.634,0.596-1.126,1.205-1.095    c17.696,0.843,52.161,2.269,55.935,1.643c1.804-0.543,5.283-11.601,7.361-18.207c3.671-11.671,5.262-16.109,7.427-16.418    c0.326-0.052,1.176-0.053,1.828,0.927c1.335,2.003,2.745,10.323,4.935,23.735c2.179,13.345,5.826,35.681,8.505,36.905    c1.845-1.368,5.306-19.374,8.088-33.841c5.066-26.344,8.439-42.442,12.576-43.845c0.808-0.273,1.642-0.082,2.341,0.541    c3.938,3.5,8.309,20.296,14.052,43.642c2.779,11.29,6.187,25.145,7.962,28.138c1.628-2.93,4.487-15.909,6.818-26.492    c4.899-22.25,8.118-35.868,11.503-37.371c0.604-0.268,1.244-0.235,1.809,0.086c3.729,2.131,5.279,13.697,7.064,29.804    c0.698,6.31,1.491,13.462,2.242,14.469c2.589,1.545,33.289-1.566,60.801-5.334c0.624-0.085,1.21,0.354,1.298,0.985    c0.085,0.63-0.355,1.211-0.985,1.298c-22.446,3.074-60.475,7.743-62.955,4.434c-1.078-1.436-1.664-6.336-2.69-15.597    c-1.074-9.698-2.861-25.826-5.775-27.967c-2.593,1.768-7.078,22.137-10.063,35.69c-5.374,24.4-6.726,28.69-9.048,28.69    c-2.352,0-3.879-4.528-10.216-30.282c-4.295-17.454-9.64-39.175-13.346-42.471c-3.175,0.669-8.152,26.554-11.126,42.019    c-4.674,24.313-6.855,34.333-9.638,35.527C226.586,256.686,226.315,256.742,226.044,256.742z"/>
	</g>
	<g>
		<path style="fill:#6AB6D3;" d="M221.455,315.32c-27.634-23.796-75.994-26.099-79.832-51.43c-2.987-19.716-16.667-2.23-15.71,19.52    c-0.978-2.078-1.893-4.228-2.713-6.47c-11.514-31.472,2.303-75.226-13.049-82.902C94.799,186.361,89.426,218.6,89.426,218.6    s-10.747,2.303-16.888,13.817c-6.141,11.514-3.838,36.846-3.838,36.846s-11.514-3.07-12.282,4.606    c-0.768,7.676,0.768,31.472,10.747,56.804c9.979,25.331,65.247,41.451,74.459,52.965c9.211,11.514-1.535,58.339,5.373,61.409    c6.909,3.07,87.508,4.606,94.417-6.141C241.413,438.906,249.09,339.116,221.455,315.32z"/>
		<path style="fill:#241726;" d="M164.651,321.077c-0.152,0-0.306-0.03-0.454-0.094c-45.012-19.401-38.534-38.28-38.236-39.075    c0.223-0.596,0.887-0.893,1.483-0.673c0.593,0.223,0.894,0.882,0.676,1.475c-0.074,0.21-5.722,17.749,36.988,36.16    c0.585,0.251,0.854,0.929,0.602,1.512C165.521,320.818,165.098,321.077,164.651,321.077z"/>
		<path style="fill:#241726;" d="M133.784,288.217c-1.803,0-3.761-2.525-7.077-13.24c-0.188-0.607,0.152-1.253,0.759-1.44    c0.609-0.184,1.253,0.153,1.44,0.759c2.803,9.056,4.319,11.07,4.845,11.516c1.192-1.653,1.662-11.226,1.348-19.575    c-0.025-0.636,0.471-1.171,1.106-1.194c0.66-0.042,1.169,0.47,1.194,1.106c0.368,9.736,0.099,21.463-3.265,22.038    C134.018,288.206,133.901,288.217,133.784,288.217z"/>
		<path style="fill:#241726;" d="M143.926,350.246c-0.19,0-0.382-0.047-0.56-0.146c-1.645-0.918-40.426-22.839-51.191-54.367    c-10.715-31.376-3.957-76.851-3.887-77.306c0.095-0.63,0.676-1.059,1.311-0.965c0.628,0.096,1.061,0.682,0.965,1.311    c-0.069,0.451-6.74,45.378,3.79,76.215c10.482,30.699,49.738,52.88,50.134,53.1c0.555,0.309,0.755,1.011,0.444,1.566    C144.722,350.034,144.329,350.246,143.926,350.246z"/>
		<path style="fill:#241726;" d="M137.785,364.063c-0.128,0-0.259-0.021-0.386-0.066c-0.349-0.124-35.1-12.706-53.521-38.801    c-18.409-26.081-19.392-52.565-19.4-52.829c-0.018-0.635,0.481-1.165,1.117-1.184c0.648-0.057,1.167,0.481,1.186,1.116    c0.007,0.259,0.987,26.08,18.979,51.569c18.003,25.506,52.068,37.838,52.41,37.96c0.599,0.214,0.912,0.871,0.699,1.471    C138.703,363.77,138.258,364.063,137.785,364.063z"/>
		<path style="fill:#241726;" d="M88.66,238.942c-0.413,0-0.812-0.223-1.019-0.613c-0.298-0.562-0.083-1.258,0.479-1.556    c12.196-6.456,10.921-21.749,10.907-21.903c-0.06-0.633,0.405-1.194,1.038-1.254c0.633-0.069,1.194,0.404,1.254,1.037    c0.017,0.169,1.452,16.97-12.121,24.155C89.025,238.899,88.841,238.942,88.66,238.942z"/>
		<path style="fill:#241726;" d="M72.179,259.793c-1.307,0-2.722-0.648-4.228-1.937c-0.483-0.415-0.54-1.141-0.126-1.624    c0.417-0.482,1.142-0.535,1.624-0.126c1.429,1.226,2.582,1.638,3.432,1.217c3.553-1.737,4.266-15.224,3.881-23.315    c-0.03-0.635,0.46-1.175,1.095-1.205c0.607-0.064,1.175,0.46,1.205,1.095c0.109,2.297,0.894,22.529-5.169,25.494    C73.345,259.659,72.773,259.793,72.179,259.793z"/>
		<path style="fill:#241726;" d="M94.893,292.369c-0.159,0-0.316-0.006-0.472-0.017c-1.788-0.127-3.262-0.948-4.381-2.441    c-0.382-0.508-0.279-1.23,0.23-1.611c0.507-0.382,1.229-0.281,1.611,0.23c0.711,0.948,1.594,1.446,2.702,1.525    c3.581,0.29,8.536-3.874,10.147-5.486c0.45-0.45,1.178-0.45,1.628,0c0.45,0.45,0.45,1.178,0,1.628    C106.101,286.457,100.125,292.369,94.893,292.369z"/>
		<path style="fill:#241726;" d="M101.602,302.127c-2.316,0-4.093-0.302-4.296-0.338c-0.626-0.111-1.042-0.708-0.932-1.334    c0.11-0.628,0.702-1.05,1.334-0.933c0.124,0.021,12.302,2.081,13.615-5.133c0.114-0.626,0.711-1.046,1.338-0.926    c0.626,0.114,1.041,0.713,0.927,1.338C112.456,301.017,106.04,302.127,101.602,302.127z"/>
		<path style="fill:#241726;" d="M74.551,302.571c-0.857,0-1.764-0.111-2.718-0.367c-0.614-0.163-0.979-0.795-0.815-1.409    c0.164-0.615,0.802-0.98,1.409-0.815c5.63,1.502,8.661-3.229,8.787-3.433c0.336-0.538,1.046-0.705,1.584-0.37    c0.539,0.335,0.707,1.04,0.374,1.581C82.03,299.616,78.952,302.571,74.551,302.571z"/>
		<path style="fill:#241726;" d="M81.036,312.412c-1.816,0-3.857-0.843-6.096-2.523c-0.509-0.381-0.613-1.103-0.23-1.611    c0.382-0.51,1.102-0.612,1.611-0.23c1.657,1.241,4.018,2.572,5.844,1.855c2.168-0.85,2.827-4.169,2.834-4.202    c0.112-0.626,0.716-1.045,1.338-0.927c0.626,0.114,1.041,0.713,0.926,1.338c-0.034,0.188-0.873,4.607-4.257,5.934    C82.383,312.291,81.725,312.412,81.036,312.412z"/>
	</g>
	<g>
		<path style="fill:#6AB6D3;" d="M444.873,273.869c-0.768-7.676-12.282-4.606-12.282-4.606s2.303-25.331-3.838-36.846    c-6.141-11.514-16.888-13.817-16.888-13.817s-5.373-32.24-20.726-24.564c-15.352,7.676-1.535,51.43-13.049,82.902    c-1.065,2.91-2.412,5.624-3.973,8.159c1.251-23.101-11.363-41.586-14.45-21.209c-3.838,25.331-52.198,27.634-79.832,51.43    c-27.634,23.796-19.958,123.586-19.958,123.586c6.909,10.747,87.508,9.211,94.417,6.141c6.909-3.07-3.838-49.895,5.373-61.409    c9.211-11.514,64.48-27.634,74.459-52.965C444.105,305.341,445.64,281.545,444.873,273.869z"/>
		<path style="fill:#241726;" d="M336.639,321.077c-0.445,0-0.869-0.26-1.057-0.696c-0.252-0.584,0.017-1.262,0.602-1.512    c43.015-18.542,37.055-35.978,36.99-36.152c-0.223-0.596,0.079-1.259,0.673-1.483c0.597-0.218,1.259,0.078,1.483,0.673    c0.298,0.795,6.776,19.674-38.235,39.075C336.946,321.047,336.792,321.077,336.639,321.077z"/>
		<path style="fill:#241726;" d="M367.506,288.217c-0.117,0-0.234-0.011-0.35-0.03c-3.365-0.575-3.634-12.301-3.266-22.038    c0.024-0.636,0.532-1.151,1.194-1.106c0.635,0.024,1.131,0.558,1.106,1.194c-0.314,8.349,0.157,17.922,1.349,19.577    c0.525-0.448,2.042-2.46,4.845-11.518c0.188-0.606,0.829-0.946,1.44-0.759c0.607,0.188,0.947,0.833,0.759,1.44    C371.269,285.691,369.31,288.217,367.506,288.217z"/>
		<path style="fill:#241726;" d="M357.366,350.246c-0.404,0-0.796-0.212-1.006-0.59c-0.31-0.556-0.111-1.257,0.444-1.566    c0.396-0.22,39.657-22.417,50.134-53.1c10.534-30.848,3.858-75.765,3.789-76.215c-0.097-0.629,0.336-1.215,0.965-1.311    c0.623-0.095,1.216,0.335,1.311,0.965c0.07,0.455,6.828,45.93-3.886,77.306c-10.767,31.528-49.546,53.449-51.191,54.367    C357.748,350.199,357.556,350.246,357.366,350.246z"/>
		<path style="fill:#241726;" d="M363.505,364.063c-0.473,0-0.916-0.294-1.085-0.766c-0.213-0.599,0.1-1.257,0.699-1.471    c0.342-0.121,34.419-12.471,52.41-37.96c18.015-25.52,18.974-51.31,18.98-51.568c0.02-0.635,0.608-1.117,1.185-1.118    c0.635,0.019,1.136,0.55,1.118,1.185c-0.008,0.264-0.992,26.748-19.401,52.829c-18.421,26.095-53.172,38.677-53.521,38.801    C363.764,364.042,363.634,364.063,363.505,364.063z"/>
		<path style="fill:#241726;" d="M412.632,238.942c-0.181,0-0.366-0.043-0.538-0.134c-13.574-7.185-12.138-23.987-12.121-24.155    c0.061-0.633,0.614-1.101,1.254-1.037c0.633,0.06,1.098,0.621,1.038,1.254c-0.013,0.154-1.29,15.446,10.907,21.903    c0.562,0.298,0.777,0.994,0.479,1.556C413.444,238.719,413.045,238.942,412.632,238.942z"/>
		<path style="fill:#241726;" d="M429.112,259.793c-0.594,0-1.166-0.134-1.714-0.401c-6.062-2.965-5.278-23.197-5.169-25.494    c0.03-0.635,0.588-1.131,1.205-1.095c0.634,0.03,1.126,0.57,1.095,1.205c-0.384,8.093,0.329,21.579,3.88,23.315    c0.85,0.419,2.004,0.008,3.432-1.215c0.482-0.414,1.211-0.358,1.623,0.125c0.415,0.482,0.359,1.209-0.125,1.623    C431.834,259.146,430.42,259.793,429.112,259.793z"/>
		<path style="fill:#241726;" d="M406.398,292.369c-5.233,0-11.208-5.912-11.467-6.172c-0.45-0.45-0.45-1.178,0-1.627    c0.45-0.452,1.178-0.451,1.628-0.001c1.616,1.612,6.605,5.754,10.15,5.486c1.106-0.079,1.989-0.578,2.7-1.525    c0.382-0.512,1.103-0.611,1.611-0.23c0.509,0.381,0.613,1.103,0.23,1.611c-1.119,1.493-2.593,2.314-4.381,2.441    C406.714,292.364,406.557,292.369,406.398,292.369z"/>
		<path style="fill:#241726;" d="M399.689,302.127c-4.438,0-10.854-1.109-11.984-7.327c-0.115-0.625,0.3-1.225,0.927-1.338    c0.622-0.123,1.226,0.3,1.338,0.926c1.311,7.212,13.489,5.152,13.615,5.133c0.626-0.109,1.223,0.307,1.334,0.933    c0.11,0.625-0.306,1.222-0.932,1.334C403.782,301.825,402.004,302.127,399.689,302.127z"/>
		<path style="fill:#241726;" d="M426.739,302.571c-4.401,0-7.479-2.955-8.622-4.813c-0.333-0.541-0.164-1.246,0.374-1.581    c0.541-0.335,1.25-0.167,1.584,0.37c0.126,0.203,3.156,4.929,8.789,3.433c0.606-0.167,1.245,0.2,1.409,0.815    c0.164,0.615-0.201,1.246-0.815,1.409C428.505,302.46,427.597,302.571,426.739,302.571z"/>
		<path style="fill:#241726;" d="M420.256,312.412c-0.69,0-1.348-0.121-1.971-0.367c-3.385-1.327-4.223-5.746-4.257-5.934    c-0.114-0.624,0.299-1.221,0.924-1.337c0.608-0.115,1.223,0.297,1.34,0.922c0.007,0.034,0.651,3.355,2.84,4.208    c1.825,0.712,4.183-0.616,5.838-1.858c0.506-0.382,1.229-0.281,1.611,0.23c0.382,0.508,0.279,1.23-0.23,1.611    C424.113,311.569,422.071,312.412,420.256,312.412z"/>
	</g>
	<path style="fill:#241726;" d="M424.433,421.805c-0.008,0-0.016,0-0.025,0c-0.887-0.019-1.798-0.078-2.729-0.178   c-0.679-0.072-1.34-0.152-1.986-0.238c-0.63-0.085-1.072-0.664-0.987-1.295c0.084-0.63,0.654-1.066,1.295-0.987   c0.623,0.084,1.264,0.162,1.923,0.232c0.866,0.093,1.709,0.147,2.533,0.164c0.635,0.014,1.14,0.54,1.127,1.176   C425.571,421.306,425.058,421.805,424.433,421.805z M429.019,421.522c-0.561,0-1.052-0.41-1.138-0.983   c-0.093-0.629,0.341-1.214,0.97-1.308c1.46-0.217,2.891-0.565,4.254-1.039c0.599-0.207,1.256,0.109,1.465,0.712   c0.208,0.6-0.11,1.256-0.712,1.465c-1.497,0.518-3.069,0.902-4.67,1.14C429.131,421.518,429.075,421.522,429.019,421.522z    M415.315,420.62c-0.08,0-0.161-0.008-0.243-0.026c-1.619-0.348-3.154-0.756-4.561-1.216c-0.604-0.197-0.934-0.847-0.736-1.452   c0.197-0.605,0.842-0.941,1.452-0.737c1.33,0.434,2.788,0.822,4.329,1.152c0.622,0.133,1.018,0.746,0.884,1.367   C416.324,420.25,415.846,420.62,415.315,420.62z M437.66,418.524c-0.398,0-0.786-0.207-0.999-0.577   c-0.318-0.551-0.128-1.255,0.423-1.572c1.249-0.721,2.458-1.571,3.591-2.53c0.486-0.412,1.211-0.349,1.623,0.136   c0.41,0.486,0.35,1.212-0.136,1.623c-1.238,1.047-2.56,1.978-3.929,2.766C438.052,418.475,437.854,418.524,437.66,418.524z    M406.606,417.708c-0.173,0-0.35-0.039-0.515-0.122c-1.533-0.768-2.907-1.644-4.083-2.603c-0.492-0.403-0.567-1.128-0.165-1.62   c0.404-0.489,1.128-0.566,1.62-0.165c1.046,0.853,2.277,1.637,3.66,2.331c0.569,0.284,0.798,0.976,0.513,1.545   C407.435,417.475,407.028,417.708,406.606,417.708z M444.681,412.632c-0.266,0-0.533-0.091-0.751-0.279   c-0.481-0.414-0.536-1.141-0.121-1.624c0.941-1.095,1.834-2.295,2.651-3.567c0.342-0.535,1.056-0.69,1.591-0.345   c0.534,0.343,0.689,1.056,0.345,1.591c-0.875,1.361-1.831,2.647-2.843,3.823C445.326,412.496,445.005,412.632,444.681,412.632z    M399.651,411.855c-0.376,0-0.744-0.183-0.966-0.522c-0.92-1.41-1.57-2.957-1.934-4.6c-0.137-0.621,0.254-1.235,0.876-1.373   c0.611-0.137,1.235,0.254,1.373,0.876c0.304,1.371,0.847,2.662,1.615,3.838c0.347,0.533,0.197,1.247-0.335,1.594   C400.085,411.795,399.866,411.855,399.651,411.855z M449.674,404.915c-0.168,0-0.337-0.036-0.499-0.115   c-0.572-0.275-0.813-0.964-0.536-1.537c0.638-1.323,1.214-2.716,1.714-4.136c0.21-0.603,0.866-0.922,1.469-0.705   c0.599,0.21,0.915,0.868,0.704,1.468c-0.527,1.5-1.137,2.972-1.813,4.373C450.514,404.676,450.103,404.915,449.674,404.915z    M397.642,403.057c-0.041,0-0.081-0.002-0.121-0.007c-0.633-0.066-1.092-0.633-1.024-1.265c0.294-2.792,1.198-4.74,1.236-4.82   c0.273-0.573,0.961-0.819,1.529-0.551c0.576,0.269,0.824,0.953,0.557,1.529c-0.008,0.017-0.781,1.7-1.032,4.083   C398.724,402.617,398.225,403.057,397.642,403.057z M452.727,396.237c-0.087,0-0.174-0.01-0.262-0.03   c-0.62-0.144-1.005-0.763-0.86-1.382c0.214-0.921,0.395-1.841,0.541-2.753c-1.207-0.036-2.346-0.12-3.399-0.252   c-0.631-0.079-1.078-0.654-1-1.285c0.08-0.631,0.645-1.077,1.285-1c1.109,0.138,2.325,0.221,3.624,0.246   c0.241-0.271,0.609-0.426,0.992-0.379c0.632,0.072,1.086,0.642,1.013,1.274c-0.009,0.079-0.018,0.157-0.027,0.236   c0,0.01,0,0.019,0,0.029c0,0.108-0.015,0.211-0.043,0.31c-0.174,1.348-0.424,2.722-0.744,4.094   C453.724,395.878,453.25,396.237,452.727,396.237z M458.082,391.899c-0.595,0-1.099-0.458-1.147-1.06   c-0.051-0.634,0.423-1.189,1.057-1.239c1.408-0.111,2.911-0.275,4.512-0.496c0.624-0.083,1.21,0.355,1.298,0.985   c0.086,0.63-0.355,1.211-0.985,1.298c-1.648,0.225-3.195,0.394-4.643,0.509C458.144,391.898,458.112,391.899,458.082,391.899z    M444.411,390.808c-0.132,0-0.265-0.022-0.396-0.07c-1.899-0.696-3.349-1.654-4.307-2.848c-0.399-0.496-0.319-1.22,0.177-1.618   c0.495-0.402,1.22-0.319,1.618,0.176c0.693,0.862,1.805,1.578,3.304,2.126c0.597,0.219,0.904,0.88,0.686,1.478   C445.322,390.519,444.88,390.808,444.411,390.808z M467.207,390.666c-0.545,0-1.03-0.389-1.131-0.945   c-0.115-0.626,0.3-1.226,0.925-1.339l0.444-0.082c1.513-0.283,2.729-0.612,3.815-1.013c0.597-0.221,1.259,0.086,1.48,0.681   c0.22,0.597-0.085,1.258-0.681,1.479c-1.208,0.446-2.549,0.81-3.986,1.078l-0.658,0.121   C467.345,390.661,467.275,390.666,467.207,390.666z M475.694,387.345c-0.345,0-0.687-0.154-0.913-0.449   c-0.388-0.504-0.295-1.227,0.209-1.615c1.114-0.858,2.033-1.9,2.73-3.097c0.319-0.549,1.024-0.734,1.574-0.416   c0.55,0.32,0.735,1.026,0.416,1.574c-0.848,1.456-1.963,2.722-3.315,3.762C476.186,387.267,475.939,387.345,475.694,387.345z    M453.726,387.097c-0.62,0-1.131-0.492-1.15-1.117c-0.048-1.615-0.243-3.057-0.577-4.289c-0.166-0.614,0.196-1.246,0.81-1.412   c0.615-0.171,1.247,0.196,1.412,0.81c0.381,1.405,0.603,3.027,0.658,4.822c0.019,0.635-0.481,1.166-1.117,1.186   C453.751,387.097,453.738,387.097,453.726,387.097z M439.767,383.988c-0.107,0-0.216-0.015-0.324-0.046   c-0.61-0.18-0.96-0.82-0.781-1.429c0.455-1.551,1.52-3.068,2.998-4.273c0.493-0.407,1.218-0.328,1.619,0.164   c0.402,0.492,0.329,1.218-0.164,1.619c-1.121,0.915-1.917,2.03-2.242,3.137C440.724,383.663,440.265,383.988,439.767,383.988z    M480.314,379.619c-0.077,0-0.156-0.008-0.235-0.024c-0.623-0.129-1.023-0.74-0.894-1.362c0.269-1.294,0.409-2.757,0.417-4.347   c0.003-0.634,0.518-1.146,1.151-1.146c0.002,0,0.003,0,0.006,0c0.635,0.003,1.149,0.521,1.146,1.157   c-0.009,1.744-0.165,3.36-0.464,4.804C481.327,379.246,480.848,379.619,480.314,379.619z M450.86,378.614   c-0.247,0-0.496-0.079-0.706-0.243c-0.442-0.343-0.921-0.51-1.464-0.51c-0.082,0.003-0.198,0.007-0.299,0.016   c-0.552,0.055-1.101,0.157-1.627,0.299c-0.616,0.168-1.246-0.199-1.411-0.813c-0.165-0.614,0.199-1.246,0.813-1.411   c0.656-0.176,1.33-0.299,2.006-0.368c0.182-0.018,0.352-0.063,0.52-0.026c1.059,0,2.027,0.335,2.877,0.996   c0.501,0.39,0.591,1.114,0.201,1.616C451.542,378.461,451.203,378.614,450.86,378.614z M480.479,370.448   c-0.578,0-1.076-0.434-1.142-1.022c-0.157-1.385-0.381-2.848-0.685-4.472c-0.116-0.625,0.296-1.227,0.921-1.344   c0.629-0.11,1.227,0.297,1.344,0.921c0.313,1.679,0.544,3.194,0.707,4.636c0.072,0.631-0.382,1.202-1.014,1.273   C480.566,370.446,480.522,370.448,480.479,370.448z M478.838,361.385c-0.524,0-0.999-0.361-1.121-0.894   c-0.334-1.455-0.698-2.94-1.083-4.451c-0.158-0.616,0.215-1.244,0.831-1.4c0.611-0.157,1.243,0.215,1.4,0.831   c0.389,1.528,0.758,3.031,1.096,4.504c0.143,0.62-0.245,1.237-0.865,1.38C479.01,361.376,478.923,361.385,478.838,361.385z    M476.587,352.449c-0.509,0-0.976-0.341-1.112-0.857l-1.178-4.455c-0.162-0.615,0.205-1.245,0.82-1.407   c0.617-0.16,1.245,0.206,1.407,0.82l1.178,4.453c0.162,0.615-0.205,1.246-0.819,1.408   C476.783,352.437,476.685,352.449,476.587,352.449z M474.261,343.533c-0.516,0-0.985-0.349-1.115-0.871   c-0.375-1.496-0.738-2.999-1.081-4.505c-0.142-0.621,0.246-1.237,0.866-1.378c0.617-0.145,1.237,0.244,1.379,0.866   c0.341,1.49,0.699,2.978,1.069,4.457c0.155,0.617-0.22,1.242-0.837,1.396C474.448,343.522,474.354,343.533,474.261,343.533z    M472.232,334.544c-0.54,0-1.022-0.381-1.129-0.932c-0.298-1.531-0.566-3.062-0.796-4.585c-0.096-0.629,0.337-1.215,0.966-1.31   c0.632-0.102,1.216,0.336,1.31,0.966c0.226,1.492,0.489,2.991,0.78,4.491c0.121,0.624-0.286,1.228-0.911,1.349   C472.378,334.537,472.305,334.544,472.232,334.544z M470.881,325.432c-0.588,0-1.09-0.448-1.146-1.045   c-0.151-1.621-0.242-3.197-0.272-4.682c-0.012-0.635,0.493-1.16,1.129-1.174c0.552,0.021,1.161,0.494,1.174,1.129   c0.028,1.429,0.117,2.948,0.263,4.513c0.059,0.633-0.407,1.194-1.04,1.254C470.953,325.431,470.917,325.432,470.881,325.432z    M470.723,316.231c-0.027,0-0.054-0.001-0.082-0.003c-0.634-0.044-1.112-0.595-1.067-1.229c0.114-1.619,0.313-3.199,0.59-4.697   c0.117-0.626,0.717-1.049,1.342-0.922c0.625,0.116,1.038,0.717,0.922,1.343c-0.262,1.412-0.45,2.906-0.559,4.438   C471.827,315.768,471.322,316.231,470.723,316.231z M472.431,307.203c-0.119,0-0.241-0.018-0.361-0.058   c-0.604-0.199-0.932-0.85-0.732-1.454c0.506-1.535,1.121-3.018,1.828-4.408c0.288-0.569,0.98-0.793,1.548-0.505   c0.568,0.289,0.793,0.982,0.505,1.549c-0.656,1.286-1.226,2.66-1.696,4.085C473.365,306.896,472.914,307.203,472.431,307.203z    M476.592,299.034c-0.235,0-0.472-0.072-0.676-0.22c-0.515-0.374-0.629-1.094-0.254-1.608c0.924-1.271,1.968-2.493,3.101-3.632   c0.45-0.45,1.178-0.452,1.628-0.004c0.451,0.449,0.453,1.177,0.005,1.628c-1.051,1.056-2.017,2.187-2.872,3.362   C477.3,298.87,476.949,299.034,476.592,299.034z"/>
	<g>
		<path style="fill:#241726;" d="M255.461,104.938c-0.361,0-0.717-0.17-0.941-0.487l-19.254-27.243    c-0.368-0.519-0.244-1.238,0.275-1.605c0.52-0.368,1.238-0.243,1.605,0.276l19.254,27.243c0.368,0.52,0.244,1.238-0.276,1.605    C255.922,104.87,255.69,104.938,255.461,104.938z"/>
		<path style="fill:#241726;" d="M234.313,107.297c-0.198,0-0.398-0.051-0.581-0.159c-0.549-0.322-0.732-1.027-0.41-1.575    l19.574-33.391c0.319-0.549,1.024-0.734,1.575-0.41c0.549,0.322,0.732,1.027,0.41,1.575l-19.574,33.391    C235.094,107.094,234.709,107.297,234.313,107.297z"/>
		<path style="fill:#241726;" d="M262.141,91.562c-0.013,0-0.026,0-0.039-0.001l-34.926-1.151c-0.635-0.02-1.133-0.553-1.112-1.188    c0.02-0.635,0.604-1.136,1.189-1.112l34.926,1.152c0.635,0.02,1.133,0.553,1.112,1.188    C263.27,91.07,262.759,91.562,262.141,91.562z"/>
		<g>
			<path style="fill:#FFFFFF;" d="M238.577,76.657c-0.642,2.131-2.89,3.339-5.021,2.697c-2.131-0.642-3.339-2.89-2.697-5.021     c0.642-2.131,2.89-3.339,5.021-2.697S239.219,74.526,238.577,76.657z"/>
			<path style="fill:#241726;" d="M234.72,80.677c-0.505,0-1.009-0.074-1.495-0.221c-2.736-0.823-4.291-3.72-3.469-6.454     c0.802-2.657,3.783-4.268,6.457-3.469c2.736,0.825,4.291,3.721,3.467,6.456C239.026,79.162,236.986,80.677,234.72,80.677z      M234.718,72.615c-1.259,0-2.393,0.843-2.757,2.05c-0.456,1.519,0.408,3.128,1.927,3.587c1.498,0.449,3.143-0.45,3.587-1.926     c0.458-1.52-0.407-3.129-1.926-3.588C235.278,72.657,234.998,72.615,234.718,72.615z"/>
		</g>
		<g>
			<path style="fill:#FFFFFF;" d="M260.605,105.336c-0.642,2.131-2.89,3.339-5.021,2.697c-2.131-0.642-3.339-2.89-2.697-5.021     c0.642-2.131,2.89-3.339,5.021-2.697C260.039,100.957,261.247,103.204,260.605,105.336z"/>
			<path style="fill:#241726;" d="M256.748,109.356c-0.505,0-1.009-0.074-1.495-0.222c-1.326-0.399-2.416-1.29-3.071-2.509     c-0.654-1.22-0.796-2.621-0.396-3.946c0.797-2.656,3.785-4.267,6.454-3.469c2.736,0.825,4.291,3.721,3.467,6.456     C261.054,107.84,259.014,109.356,256.748,109.356z M256.745,101.294c-1.258,0-2.392,0.843-2.754,2.05     c-0.223,0.737-0.144,1.515,0.219,2.192c0.364,0.678,0.97,1.173,1.706,1.395c1.5,0.446,3.142-0.451,3.587-1.926     c0.458-1.52-0.407-3.129-1.926-3.588C257.305,101.335,257.026,101.294,256.745,101.294z"/>
		</g>
		<g>
			<circle style="fill:#FFFFFF;" cx="234.314" cy="105.954" r="4.03"/>
			<path style="fill:#241726;" d="M234.315,111.136c-2.857,0-5.181-2.324-5.181-5.181s2.324-5.181,5.181-5.181     c2.857,0,5.181,2.324,5.181,5.181S237.172,111.136,234.315,111.136z M234.315,103.076c-1.588,0-2.879,1.291-2.879,2.879     s1.291,2.879,2.879,2.879c1.588,0,2.879-1.291,2.879-2.879S235.902,103.076,234.315,103.076z"/>
		</g>
		<g>
			<path style="fill:#FFFFFF;" d="M256.959,71.987c0,2.226-1.804,4.03-4.03,4.03c-2.226,0-4.03-1.804-4.03-4.03     s1.804-4.03,4.03-4.03C255.154,67.957,256.959,69.762,256.959,71.987z"/>
			<path style="fill:#241726;" d="M252.928,77.169c-2.857,0-5.181-2.324-5.181-5.181s2.324-5.181,5.181-5.181     c2.857,0,5.181,2.324,5.181,5.181S255.786,77.169,252.928,77.169z M252.928,69.109c-1.588,0-2.879,1.291-2.879,2.879     s1.291,2.879,2.879,2.879c1.588,0,2.879-1.291,2.879-2.879S254.516,69.109,252.928,69.109z"/>
		</g>
		<g>
			<path style="fill:#FFFFFF;" d="M229.133,89.451c0,2.226-1.804,4.03-4.03,4.03c-2.226,0-4.03-1.804-4.03-4.03     s1.804-4.03,4.03-4.03C227.328,85.421,229.133,87.225,229.133,89.451z"/>
			<path style="fill:#241726;" d="M225.103,94.632c-2.857,0-5.181-2.324-5.181-5.181c0-2.857,2.324-5.181,5.181-5.181     s5.181,2.324,5.181,5.181C230.285,92.307,227.96,94.632,225.103,94.632z M225.103,86.572c-1.588,0-2.879,1.291-2.879,2.879     s1.291,2.878,2.879,2.878c1.588,0,2.878-1.291,2.878-2.878S226.691,86.572,225.103,86.572z"/>
		</g>
		<g>
			<path style="fill:#FFFFFF;" d="M267.322,89.451c0,2.226-1.804,4.03-4.03,4.03c-2.226,0-4.03-1.804-4.03-4.03     s1.804-4.03,4.03-4.03C265.517,85.421,267.322,87.225,267.322,89.451z"/>
			<path style="fill:#241726;" d="M263.291,94.632c-2.857,0-5.181-2.324-5.181-5.181c0-2.857,2.324-5.181,5.181-5.181     s5.181,2.324,5.181,5.181C268.473,92.307,266.148,94.632,263.291,94.632z M263.291,86.572c-1.588,0-2.879,1.291-2.879,2.879     s1.291,2.878,2.879,2.878s2.879-1.291,2.879-2.878S264.879,86.572,263.291,86.572z"/>
		</g>
	</g>
	<g>
		<path style="fill:#241726;" d="M35.539,255.775c-0.361,0-0.717-0.17-0.941-0.487l-19.254-27.243    c-0.368-0.519-0.244-1.238,0.275-1.604c0.521-0.367,1.24-0.244,1.605,0.275l19.254,27.243c0.368,0.52,0.244,1.238-0.275,1.605    C36,255.706,35.768,255.775,35.539,255.775z"/>
		<path style="fill:#241726;" d="M14.392,258.134c-0.198,0-0.398-0.051-0.581-0.159c-0.549-0.322-0.732-1.027-0.41-1.575    l19.574-33.391c0.319-0.548,1.023-0.737,1.575-0.41c0.549,0.322,0.732,1.027,0.41,1.575l-19.574,33.391    C15.172,257.93,14.787,258.134,14.392,258.134z"/>
		<path style="fill:#241726;" d="M42.219,242.398c-0.014,0-0.026,0-0.039-0.001l-34.926-1.151c-0.635-0.02-1.133-0.553-1.112-1.189    c0.021-0.635,0.561-1.15,1.189-1.112l34.926,1.151c0.635,0.02,1.133,0.553,1.112,1.189    C43.348,241.907,42.838,242.398,42.219,242.398z"/>
		<g>
			<path style="fill:#FFFFFF;" d="M18.656,227.493c-0.642,2.131-2.89,3.339-5.021,2.697c-2.131-0.642-3.339-2.89-2.697-5.021     c0.642-2.131,2.89-3.339,5.021-2.697C18.09,223.114,19.297,225.362,18.656,227.493z"/>
			<path style="fill:#241726;" d="M14.799,231.514c-0.505,0-1.009-0.074-1.495-0.221c-2.736-0.823-4.291-3.72-3.469-6.454     c0.802-2.656,3.787-4.271,6.456-3.469c2.736,0.825,4.291,3.721,3.467,6.456C19.104,229.998,17.064,231.514,14.799,231.514z      M14.796,223.451c-1.259,0-2.393,0.843-2.757,2.05c-0.457,1.519,0.408,3.128,1.927,3.587c1.497,0.445,3.143-0.45,3.587-1.926     c0.458-1.52-0.407-3.129-1.926-3.588C15.356,223.493,15.076,223.451,14.796,223.451z"/>
		</g>
		<g>
			<path style="fill:#FFFFFF;" d="M40.683,256.172c-0.642,2.131-2.89,3.339-5.021,2.697c-2.131-0.642-3.339-2.89-2.697-5.021     c0.642-2.131,2.89-3.339,5.021-2.697C40.118,251.793,41.325,254.041,40.683,256.172z"/>
			<path style="fill:#241726;" d="M36.826,260.192c-0.505,0-1.009-0.074-1.496-0.221c-1.326-0.399-2.416-1.29-3.071-2.509     c-0.654-1.22-0.796-2.621-0.396-3.946c0.798-2.655,3.783-4.27,6.454-3.469c2.736,0.825,4.291,3.721,3.467,6.456     C41.132,258.677,39.092,260.192,36.826,260.192z M36.823,252.13c-1.258,0-2.392,0.843-2.754,2.05     c-0.223,0.736-0.144,1.515,0.219,2.191c0.364,0.678,0.97,1.173,1.706,1.396c1.498,0.449,3.143-0.45,3.587-1.926     c0.458-1.52-0.407-3.129-1.926-3.588C37.383,252.172,37.104,252.13,36.823,252.13z"/>
		</g>
		<g>
			<circle style="fill:#FFFFFF;" cx="14.392" cy="256.791" r="4.03"/>
			<path style="fill:#241726;" d="M14.393,261.972c-2.857,0-5.181-2.324-5.181-5.181c0-2.857,2.324-5.181,5.181-5.181     c2.857,0,5.181,2.324,5.181,5.181C19.574,259.648,17.25,261.972,14.393,261.972z M14.393,253.912     c-1.588,0-2.879,1.291-2.879,2.879s1.291,2.879,2.879,2.879c1.588,0,2.879-1.291,2.879-2.879S15.98,253.912,14.393,253.912z"/>
		</g>
		<g>
			<circle style="fill:#FFFFFF;" cx="33.007" cy="222.824" r="4.03"/>
			<path style="fill:#241726;" d="M33.007,228.005c-2.857,0-5.181-2.324-5.181-5.181c0-2.857,2.324-5.181,5.181-5.181     s5.181,2.324,5.181,5.181C38.188,225.681,35.864,228.005,33.007,228.005z M33.007,219.945c-1.588,0-2.879,1.291-2.879,2.879     c0,1.588,1.291,2.878,2.879,2.878c1.588,0,2.879-1.291,2.879-2.878C35.885,221.236,34.594,219.945,33.007,219.945z"/>
		</g>
		<g>
			<path style="fill:#FFFFFF;" d="M9.211,240.287c0,2.226-1.804,4.03-4.03,4.03c-2.226,0-4.03-1.804-4.03-4.03     c0-2.226,1.804-4.03,4.03-4.03C7.407,236.257,9.211,238.061,9.211,240.287z"/>
			<path style="fill:#241726;" d="M5.181,245.468c-2.857,0-5.181-2.324-5.181-5.181c0-2.857,2.324-5.181,5.181-5.181     c2.857,0,5.181,2.324,5.181,5.181C10.363,243.144,8.039,245.468,5.181,245.468z M5.181,237.408c-1.588,0-2.879,1.291-2.879,2.879     c0,1.588,1.291,2.878,2.879,2.878s2.879-1.291,2.879-2.878C8.06,238.699,6.769,237.408,5.181,237.408z"/>
		</g>
		<g>
			<path style="fill:#FFFFFF;" d="M47.4,240.287c0,2.226-1.804,4.03-4.03,4.03s-4.03-1.804-4.03-4.03c0-2.226,1.804-4.03,4.03-4.03     S47.4,238.061,47.4,240.287z"/>
			<path style="fill:#241726;" d="M43.369,245.468c-2.857,0-5.181-2.324-5.181-5.181c0-2.857,2.324-5.181,5.181-5.181     s5.181,2.324,5.181,5.181C48.551,243.144,46.227,245.468,43.369,245.468z M43.369,237.408c-1.588,0-2.878,1.291-2.878,2.879     c0,1.588,1.291,2.878,2.878,2.878s2.879-1.291,2.879-2.878C46.248,238.699,44.957,237.408,43.369,237.408z"/>
		</g>
	</g>
	<g>
		<path style="fill:#241726;" d="M382.16,471.26c-0.064,0-0.13-0.006-0.196-0.017c-0.627-0.108-1.048-0.703-0.94-1.329l5.648-32.877    c0.107-0.626,0.704-1.049,1.329-0.94c0.627,0.108,1.048,0.703,0.94,1.329l-5.648,32.877    C383.198,470.865,382.711,471.26,382.16,471.26z"/>
		<path style="fill:#241726;" d="M365.536,457.976c-0.51,0-0.978-0.343-1.113-0.861c-0.161-0.615,0.208-1.244,0.824-1.404    l37.453-9.769c0.611-0.158,1.244,0.208,1.404,0.824c0.161,0.615-0.208,1.244-0.824,1.404l-37.453,9.769    C365.731,457.964,365.633,457.976,365.536,457.976z"/>
		<path style="fill:#241726;" d="M396.34,466.525c-0.307,0-0.614-0.123-0.841-0.364l-23.882-25.51    c-0.434-0.464-0.41-1.193,0.054-1.628c0.467-0.431,1.193-0.408,1.628,0.054l23.882,25.51c0.434,0.464,0.41,1.193-0.054,1.628    C396.905,466.422,396.622,466.525,396.34,466.525z"/>
		<g>
			<path style="fill:#FFFFFF;" d="M389.404,438.988c-1.961,1.053-4.404,0.318-5.457-1.643c-1.053-1.961-0.317-4.404,1.643-5.457     c1.961-1.053,4.404-0.318,5.457,1.643C392.101,435.491,391.365,437.935,389.404,438.988z"/>
			<path style="fill:#241726;" d="M387.501,440.619c-1.913,0-3.663-1.046-4.569-2.729c-1.352-2.518-0.403-5.666,2.113-7.018     c2.449-1.314,5.709-0.318,7.016,2.113c1.353,2.515,0.405,5.664-2.112,7.016C389.198,440.406,388.351,440.619,387.501,440.619z      M387.493,432.558c-0.477,0-0.933,0.116-1.358,0.343c-1.398,0.751-1.924,2.501-1.174,3.9c0.73,1.355,2.531,1.911,3.898,1.173     c0.677-0.364,1.173-0.97,1.394-1.707c0.222-0.735,0.144-1.513-0.22-2.19C389.531,433.14,388.557,432.558,387.493,432.558z"/>
		</g>
		<g>
			<path style="fill:#FFFFFF;" d="M384.701,474.843c-1.961,1.053-4.404,0.318-5.457-1.643c-1.053-1.961-0.317-4.404,1.643-5.457     c1.961-1.053,4.404-0.317,5.457,1.643C387.398,471.346,386.662,473.79,384.701,474.843z"/>
			<path style="fill:#241726;" d="M382.797,476.474c-1.913,0-3.663-1.046-4.567-2.73c-1.353-2.516-0.405-5.664,2.112-7.016     c2.447-1.313,5.709-0.32,7.018,2.113c1.352,2.518,0.404,5.665-2.113,7.016C384.494,476.261,383.648,476.474,382.797,476.474z      M382.791,468.413c-0.478,0-0.935,0.116-1.359,0.343c-0.677,0.364-1.172,0.97-1.393,1.707c-0.221,0.735-0.144,1.515,0.22,2.191     c0.729,1.357,2.532,1.914,3.897,1.174c1.399-0.751,1.925-2.5,1.175-3.898C384.828,468.995,383.854,468.413,382.791,468.413z"/>
		</g>
		<g>
			<path style="fill:#FFFFFF;" d="M368.523,459.539c-1.574,1.574-4.125,1.574-5.699,0c-1.574-1.574-1.574-4.125,0-5.699     c1.574-1.574,4.125-1.574,5.699,0C370.097,455.414,370.097,457.966,368.523,459.539z"/>
			<path style="fill:#241726;" d="M365.673,461.871c-1.384,0-2.685-0.54-3.663-1.518c-0.979-0.978-1.518-2.28-1.518-3.663     c0-1.384,0.54-2.685,1.518-3.663c1.957-1.955,5.37-1.96,7.327,0c0.978,0.978,1.518,2.279,1.518,3.663     c0,1.383-0.539,2.685-1.518,3.663C368.359,461.333,367.056,461.871,365.673,461.871z M365.673,453.811     c-0.769,0-1.491,0.299-2.035,0.843c-0.544,0.544-0.843,1.266-0.843,2.035c0,0.768,0.299,1.491,0.843,2.035     c1.087,1.087,2.981,1.09,4.07,0c0.544-0.544,0.843-1.267,0.843-2.035c0-0.769-0.299-1.491-0.843-2.035     C367.164,454.11,366.441,453.811,365.673,453.811z"/>
		</g>
		<g>
			<circle style="fill:#FFFFFF;" cx="402.854" cy="445.834" r="4.03"/>
			<path style="fill:#241726;" d="M402.854,451.015c-1.384,0-2.685-0.539-3.663-1.517c-0.979-0.978-1.518-2.28-1.518-3.663     c0-1.384,0.539-2.686,1.518-3.665c1.956-1.957,5.37-1.957,7.327,0c0.979,0.978,1.518,2.28,1.518,3.665     c0,1.383-0.539,2.685-1.518,3.663C405.539,450.476,404.238,451.015,402.854,451.015z M402.854,442.956     c-0.769,0-1.492,0.299-2.035,0.842c-0.544,0.544-0.843,1.267-0.843,2.036c0,0.768,0.299,1.491,0.843,2.035     c1.086,1.086,2.984,1.086,4.07,0c0.544-0.544,0.843-1.267,0.843-2.035c0-0.769-0.299-1.492-0.843-2.036     C404.346,443.255,403.623,442.956,402.854,442.956z"/>
		</g>
		<g>
			<path style="fill:#FFFFFF;" d="M373.679,441.356c-1.574,1.574-4.125,1.574-5.699,0c-1.574-1.574-1.574-4.125,0-5.699     c1.574-1.574,4.125-1.574,5.699,0C375.253,437.231,375.253,439.782,373.679,441.356z"/>
			<path style="fill:#241726;" d="M370.83,443.688c-1.384,0-2.686-0.539-3.664-1.518c-2.02-2.021-2.02-5.307,0-7.328     c1.959-1.955,5.368-1.958,7.328,0c0.979,0.978,1.518,2.28,1.518,3.665c0,1.383-0.539,2.685-1.518,3.663     C373.515,443.149,372.213,443.688,370.83,443.688z M370.83,435.628c-0.769,0-1.492,0.299-2.036,0.842     c-1.121,1.122-1.121,2.949,0,4.072c1.087,1.088,2.983,1.088,4.072,0c0.544-0.544,0.843-1.267,0.843-2.035     c0-0.769-0.299-1.492-0.843-2.036C372.321,435.927,371.598,435.628,370.83,435.628z"/>
		</g>
		<g>
			<path style="fill:#FFFFFF;" d="M400.683,468.36c-1.574,1.574-4.125,1.574-5.699,0c-1.574-1.574-1.574-4.126,0-5.699     c1.574-1.574,4.125-1.574,5.699,0C402.257,464.234,402.257,466.786,400.683,468.36z"/>
			<path style="fill:#241726;" d="M397.833,470.691c-1.384,0-2.685-0.54-3.663-1.518c-0.978-0.978-1.518-2.279-1.518-3.663     c0-1.384,0.54-2.685,1.518-3.663c1.956-1.957,5.37-1.957,7.327,0c0.978,0.978,1.518,2.279,1.518,3.663     c0,1.384-0.54,2.685-1.518,3.663C400.519,470.152,399.218,470.691,397.833,470.691z M397.833,462.631     c-0.769,0-1.491,0.299-2.035,0.843c-0.544,0.544-0.843,1.266-0.843,2.035s0.299,1.491,0.843,2.035     c1.089,1.089,2.982,1.089,4.07,0c0.544-0.544,0.843-1.266,0.843-2.035s-0.299-1.491-0.843-2.035     C399.324,462.931,398.603,462.631,397.833,462.631z"/>
		</g>
	</g>
	<path style="fill:#241726;" d="M115.685,136.927c-0.016,0-0.031,0-0.046-0.001c-0.442-0.017-0.894-0.044-1.353-0.079   c-1.146-0.089-2.243-0.182-3.298-0.279c-0.633-0.059-1.1-0.62-1.041-1.253c0.059-0.632,0.624-1.084,1.253-1.041   c1.044,0.097,2.132,0.188,3.264,0.277c0.427,0.033,0.85,0.057,1.265,0.074c0.635,0.025,1.13,0.56,1.105,1.195   C116.81,136.441,116.3,136.927,115.685,136.927z M120.279,136.757c-0.575,0-1.072-0.43-1.142-1.014   c-0.075-0.631,0.374-1.204,1.006-1.281c1.498-0.18,2.93-0.496,4.256-0.939c0.604-0.197,1.256,0.124,1.457,0.726   c0.201,0.604-0.124,1.256-0.726,1.457c-1.474,0.493-3.06,0.843-4.712,1.042C120.371,136.755,120.324,136.757,120.279,136.757z    M106.52,136.092c-0.045,0-0.091-0.002-0.137-0.008c-1.661-0.198-3.191-0.407-4.601-0.626c-0.629-0.098-1.059-0.686-0.961-1.314   c0.098-0.628,0.693-1.058,1.315-0.961c1.385,0.215,2.889,0.422,4.52,0.615c0.631,0.075,1.083,0.648,1.007,1.28   C107.593,135.661,107.096,136.092,106.52,136.092z M97.43,134.657c-0.078,0-0.156-0.008-0.235-0.024   c-1.664-0.345-3.198-0.724-4.557-1.128c-0.609-0.181-0.957-0.822-0.776-1.432c0.183-0.608,0.817-0.955,1.433-0.776   c1.298,0.386,2.767,0.749,4.368,1.081c0.622,0.129,1.022,0.739,0.894,1.362C98.444,134.283,97.964,134.657,97.43,134.657z    M128.913,133.806c-0.381,0-0.755-0.189-0.974-0.534c-0.341-0.538-0.181-1.249,0.355-1.59c1.208-0.766,2.32-1.689,3.307-2.744   c0.435-0.468,1.164-0.49,1.627-0.055c0.466,0.434,0.489,1.163,0.055,1.627c-1.12,1.199-2.384,2.247-3.754,3.117   C129.337,133.748,129.125,133.806,128.913,133.806z M88.675,131.917c-0.175,0-0.353-0.039-0.52-0.125   c-3.242-1.643-3.725-3.254-3.725-4.068c0-0.087,0.017-0.259,0.036-0.343c0.144-0.62,0.762-1.01,1.381-0.864   c0.567,0.131,0.938,0.658,0.888,1.221c0.051,0.233,0.573,1.043,2.461,2c0.567,0.287,0.794,0.979,0.506,1.547   C89.501,131.686,89.096,131.917,88.675,131.917z M135.156,127.167c-0.193,0-0.389-0.048-0.569-0.151   c-0.552-0.316-0.746-1.019-0.431-1.571c0.702-1.23,1.295-2.576,1.767-3.998c0.198-0.605,0.85-0.938,1.454-0.732   c0.604,0.199,0.932,0.85,0.732,1.454c-0.518,1.569-1.175,3.054-1.951,4.417C135.945,126.958,135.556,127.167,135.156,127.167z    M138.082,118.484c-0.057,0-0.116-0.005-0.174-0.013c-0.628-0.096-1.06-0.683-0.965-1.311c0.047-0.315,0.09-0.63,0.127-0.947   c-0.19,0.337-0.548,0.571-0.964,0.585c-1.783,0.061-3.355,0.025-4.743-0.098c-0.633-0.056-1.101-0.615-1.045-1.249   c0.056-0.632,0.605-1.094,1.249-1.045c1.303,0.115,2.783,0.144,4.46,0.091c0.515-0.039,0.982,0.319,1.136,0.798   c0.07-0.814,0.105-1.632,0.105-2.447c0-0.636,0.515-1.205,1.151-1.205c0.637,0,1.152,0.462,1.152,1.099   c0,1.664-0.118,3.232-0.352,4.764C139.132,118.076,138.642,118.484,138.082,118.484z M140.656,116.444   c-0.579,0-1.077-0.435-1.144-1.023c-0.071-0.632,0.385-1.202,1.017-1.273c0.79-0.089,1.615-0.193,2.47-0.315   c0.663-0.095,1.301-0.217,1.913-0.368c0.616-0.157,1.242,0.225,1.393,0.842c0.153,0.617-0.225,1.241-0.842,1.393   c-0.684,0.169-1.398,0.307-2.141,0.413c-0.879,0.124-1.724,0.233-2.537,0.324C140.741,116.442,140.699,116.444,140.656,116.444z    M126.967,115.79c-0.131,0-0.264-0.022-0.395-0.07c-2.005-0.73-3.418-1.823-4.202-3.245c-0.307-0.557-0.103-1.257,0.453-1.564   c0.559-0.306,1.258-0.104,1.564,0.453c0.507,0.921,1.508,1.659,2.974,2.193c0.597,0.217,0.905,0.878,0.687,1.476   C127.879,115.5,127.437,115.79,126.967,115.79z M149.429,114.108c-0.408,0-0.803-0.217-1.012-0.601   c-0.305-0.558-0.099-1.257,0.46-1.562c1.222-0.667,2.37-1.514,3.413-2.519c0.46-0.441,1.186-0.427,1.628,0.029   c0.442,0.458,0.428,1.187-0.029,1.628c-1.192,1.148-2.506,2.118-3.91,2.883C149.804,114.063,149.615,114.108,149.429,114.108z    M138.03,109.308c-0.551,0-1.038-0.396-1.133-0.957c-0.266-1.552-0.677-2.987-1.189-4.149c-0.255-0.582,0.009-1.262,0.592-1.518   c0.586-0.251,1.262,0.01,1.518,0.591c0.592,1.352,1.047,2.928,1.348,4.687c0.108,0.626-0.314,1.222-0.94,1.329   C138.161,109.302,138.094,109.308,138.03,109.308z M123.294,108.618c-0.136,0-0.274-0.024-0.409-0.075   c-0.595-0.226-0.893-0.892-0.667-1.485c0.548-1.44,1.505-2.897,2.765-4.211c0.44-0.458,1.169-0.473,1.628-0.034   c0.459,0.44,0.473,1.169,0.034,1.628c-1.049,1.094-1.835,2.282-2.275,3.435C124.196,108.336,123.759,108.618,123.294,108.618z    M156.007,107.885c-0.22,0-0.444-0.063-0.641-0.196c-0.527-0.354-0.668-1.07-0.314-1.598c0.767-1.141,1.481-2.403,2.181-3.856   c0.277-0.572,0.964-0.81,1.537-0.536c0.572,0.275,0.813,0.964,0.536,1.537c-0.748,1.552-1.515,2.906-2.343,4.139   C156.741,107.706,156.378,107.885,156.007,107.885z M129.488,102.046c-0.423,0-0.83-0.234-1.031-0.637   c-0.284-0.569-0.053-1.26,0.516-1.544c1.952-0.974,3.76-1.407,5.407-0.661c0.58,0.262,0.837,0.945,0.575,1.524   c-0.261,0.58-0.942,0.838-1.524,0.575c-0.216-0.098-0.423-0.145-0.634-0.145c-0.821,0-1.788,0.265-2.797,0.768   C129.835,102.008,129.66,102.046,129.488,102.046z M160.071,99.648c-0.136,0-0.273-0.024-0.408-0.074   c-0.595-0.226-0.894-0.891-0.669-1.485c0.524-1.381,1.019-2.818,1.5-4.3c0.197-0.605,0.844-0.933,1.451-0.74   c0.605,0.197,0.937,0.846,0.74,1.451c-0.493,1.518-1.001,2.991-1.536,4.406C160.973,99.364,160.536,99.648,160.071,99.648z    M162.961,90.891c-0.109,0-0.221-0.016-0.333-0.049c-0.608-0.183-0.954-0.825-0.769-1.435l1.321-4.417   c0.182-0.61,0.818-0.957,1.434-0.772c0.61,0.183,0.955,0.825,0.773,1.434l-1.324,4.421   C163.914,90.569,163.456,90.891,162.961,90.891z M165.638,82.065c-0.115,0-0.233-0.017-0.349-0.054   c-0.606-0.192-0.941-0.84-0.749-1.446c0.464-1.463,0.95-2.935,1.468-4.408c0.211-0.599,0.866-0.919,1.469-0.704   c0.599,0.211,0.915,0.868,0.704,1.468c-0.509,1.451-0.988,2.9-1.446,4.34C166.581,81.752,166.126,82.065,165.638,82.065z    M168.715,73.377c-0.144,0-0.289-0.027-0.429-0.083c-0.59-0.237-0.876-0.909-0.639-1.498c0.578-1.437,1.195-2.867,1.863-4.284   c0.27-0.575,0.957-0.823,1.531-0.551c0.576,0.271,0.822,0.957,0.551,1.531c-0.648,1.376-1.247,2.766-1.809,4.163   C169.602,73.105,169.17,73.377,168.715,73.377z M172.649,65.059c-0.19,0-0.383-0.047-0.561-0.146   c-0.554-0.31-0.753-1.012-0.443-1.567c0.776-1.386,1.601-2.732,2.452-4c0.355-0.527,1.07-0.67,1.598-0.314   c0.529,0.354,0.668,1.07,0.314,1.598c-0.816,1.215-1.609,2.507-2.354,3.84C173.444,64.846,173.053,65.059,172.649,65.059z    M177.782,57.444c-0.254,0-0.512-0.084-0.725-0.257c-0.494-0.401-0.568-1.127-0.167-1.62c0.988-1.217,2.044-2.395,3.137-3.503   c0.447-0.451,1.175-0.457,1.629-0.01c0.452,0.447,0.456,1.176,0.01,1.629c-1.041,1.054-2.048,2.176-2.989,3.336   C178.45,57.299,178.117,57.444,177.782,57.444z M184.229,50.925c-0.332,0-0.66-0.142-0.888-0.417   c-0.405-0.489-0.337-1.215,0.153-1.621c1.2-0.993,2.465-1.941,3.761-2.817c0.525-0.356,1.243-0.218,1.598,0.309   c0.356,0.526,0.218,1.243-0.309,1.598c-1.234,0.834-2.439,1.737-3.581,2.684C184.747,50.838,184.487,50.925,184.229,50.925z    M191.815,45.786c-0.407,0-0.801-0.216-1.011-0.597c-0.306-0.558-0.101-1.258,0.455-1.564c1.339-0.734,2.753-1.433,4.201-2.075   c0.582-0.261,1.263,0.004,1.519,0.586c0.258,0.581-0.005,1.262-0.586,1.519c-1.389,0.616-2.744,1.285-4.025,1.989   C192.192,45.74,192.002,45.786,191.815,45.786z M200.195,42.063c-0.475,0-0.919-0.295-1.085-0.768   c-0.212-0.599,0.102-1.257,0.702-1.469c1.434-0.507,2.933-0.978,4.455-1.402c0.615-0.163,1.248,0.189,1.418,0.802   c0.17,0.613-0.189,1.247-0.802,1.418c-1.472,0.408-2.92,0.864-4.304,1.353C200.451,42.042,200.322,42.063,200.195,42.063z    M209.034,39.594c-0.532,0-1.01-0.37-1.124-0.911c-0.134-0.622,0.263-1.233,0.885-1.366c1.474-0.315,2.999-0.599,4.578-0.848   c0.624-0.106,1.218,0.331,1.317,0.957c0.1,0.629-0.329,1.218-0.957,1.317c-1.538,0.244-3.022,0.52-4.456,0.825   C209.195,39.586,209.114,39.594,209.034,39.594z M218.109,38.145c-0.58,0-1.078-0.436-1.144-1.026   c-0.07-0.632,0.387-1.201,1.019-1.271c1.103-0.121,2.23-0.228,3.38-0.32c0.656-0.048,1.19,0.422,1.24,1.056   c0.051,0.634-0.423,1.19-1.056,1.24c-1.128,0.09-2.232,0.194-3.313,0.314C218.193,38.143,218.151,38.145,218.109,38.145z"/>
	<path style="fill:#241726;" d="M356.382,110.577c-0.857,0-1.666,0-3.933-9.029c-7.657-1.474-8.325-2.371-8.549-2.673   c-0.214-0.287-0.306-0.814-0.209-1.158c0.138-0.489,0.458-1.623,9.202-5.146c3.138-8.185,4.197-8.185,4.904-8.185   c0.363,0,0.866,0.262,1.083,0.553c0.561,0.753,1.071,2.712,1.842,5.849c0.242,0.986,0.534,2.176,0.703,2.695   c0.458,0.205,1.475,0.57,2.32,0.873c4.49,1.609,5.648,2.157,5.857,3.224c0.078,0.398-0.126,0.982-0.427,1.251   c-0.914,0.819-5.264,2.433-7.54,3.244c-3.702,8.423-4.489,8.464-5.186,8.501C356.427,110.577,356.402,110.577,356.382,110.577z    M346.82,97.885c1.526,0.443,4.331,1.082,6.779,1.537c0.444,0.083,0.798,0.418,0.906,0.857c0.625,2.535,1.444,5.422,2.031,7.057   c0.848-1.521,2.14-4.239,3.187-6.639c0.128-0.294,0.372-0.521,0.674-0.626c2.091-0.737,4.455-1.641,5.916-2.282   c-1.027-0.434-2.434-0.939-3.345-1.265c-2.567-0.921-3.051-1.12-3.379-1.562c-0.287-0.385-0.466-1.03-1.103-3.624   c-0.242-0.985-0.615-2.502-0.946-3.626c-0.765,1.452-1.838,3.943-2.673,6.148c-0.115,0.301-0.351,0.542-0.65,0.661   C351.501,95.605,348.42,96.986,346.82,97.885z"/>
</g>















</svg>
