<?xml version="1.0" encoding="UTF-8"?>
<!DOCTYPE svg PUBLIC "-//W3C//DTD SVG 1.1//EN" "http://www.w3.org/Graphics/SVG/1.1/DTD/svg11.dtd">
<!-- Creator: CorelDRAW 2020 (64-Bit) -->
<svg xmlns="http://www.w3.org/2000/svg" xml:space="preserve" width="17.6388mm" height="17.6388mm" version="1.1" style="shape-rendering:geometricPrecision; text-rendering:geometricPrecision; image-rendering:optimizeQuality; fill-rule:evenodd; clip-rule:evenodd"
viewBox="0 0 1763.88 1763.88"
 xmlns:xlink="http://www.w3.org/1999/xlink"
 xmlns:xodm="http://www.corel.com/coreldraw/odm/2003">
 <defs>
  <style type="text/css">
   <![CDATA[
    .fil0 {fill:#FEFEFE;fill-rule:nonzero}
    .fil1 {fill:#4D4D4D;fill-rule:nonzero}
    .fil2 {fill:#FBAA26;fill-rule:nonzero}
   ]]>
  </style>
 </defs>
 <g id="Layer_x0020_1">
  <metadata id="CorelCorpID_0Corel-Layer"/>
  <path class="fil0" d="M1516.45 271.18l-1272.06 0 -3.47 17.04c-1.57,7.77 -37.93,192.94 21.07,432.4 34.65,140.69 95.22,270.6 180.09,386.29 105.89,144.29 249.95,266.33 428.19,362.95l10.12 5.47 10.15 -5.46c178.22,-96.59 322.3,-218.66 428.22,-362.95 84.82,-115.69 145.41,-245.6 180.1,-386.29 58.97,-239.46 22.64,-424.64 21.07,-432.4l-3.48 -17.05z"/>
  <path class="fil1" d="M1527.74 266.8l-1287.57 0 -3.51 17.25c-1.59,7.86 -38.39,195.29 21.33,437.67 35.07,142.4 96.38,273.9 182.29,391 107.18,146.05 252.99,269.58 433.41,367.37l10.24 5.54 10.27 -5.53c180.39,-97.76 326.23,-221.32 433.44,-367.37 85.86,-117.1 147.19,-248.6 182.3,-391 59.69,-242.38 22.91,-429.82 21.33,-437.67l-3.53 -17.26zm-60.08 446.48c-52.76,212.75 -196.98,510.04 -583.72,723.29 -386.7,-213.25 -530.97,-510.54 -583.73,-723.29 -47.71,-192.35 -31.57,-352.16 -24.18,-403.43l1215.86 0c7.33,51.27 23.5,211.08 -24.23,403.43z"/>
  <path class="fil2" d="M1134.6 985.91c-40.98,59.69 -89.24,113 -144.7,159.83 -13.2,11.11 -26.8,21.8 -40.75,32.31 -20.85,15.4 -42.57,30.03 -65.17,43.87 -22.67,-13.84 -44.4,-28.47 -65.25,-43.87 -14,-10.48 -27.57,-21.19 -40.77,-32.31 -1.69,-1.51 -3.39,-2.94 -5.11,-4.39 -2.38,-2.01 -4.76,-4.13 -7.12,-6.24 -2.35,-2.01 -4.71,-4.02 -7.06,-6.24 -2.3,-2.01 -4.63,-4.13 -6.93,-6.3 -12.54,-11.54 -24.71,-23.47 -36.38,-35.72l64.19 0 0 -130.18 -6.69 0 -308.24 0c15.58,29.87 32.49,58.71 50.8,86.47 2.14,3.31 4.34,6.56 6.56,9.82 2.2,3.2 4.42,6.46 6.64,9.6 2.22,3.25 4.47,6.4 6.75,9.66 2.2,3.1 4.39,6.09 6.61,9.1 0.13,0.32 0.37,0.56 0.53,0.82 1.16,1.56 2.3,3.15 3.49,4.71 0.93,1.3 1.88,2.54 2.8,3.73 0.21,0.26 0.37,0.56 0.56,0.82 2.3,2.99 4.63,6.09 6.99,9.1 2.35,3.15 4.74,6.24 7.17,9.26 2.43,3.04 4.87,6.06 7.3,9.15 0.08,0.11 0.21,0.26 0.29,0.32 2.38,2.94 4.74,5.85 7.14,8.68 6.8,8.28 13.81,16.38 20.93,24.34 2.06,2.38 4.21,4.71 6.32,7.09 0.4,0.48 0.82,0.98 1.22,1.4 1.98,2.17 4.02,4.29 6.06,6.46 0.45,0.56 1.01,1.14 1.53,1.69 2.2,2.38 4.47,4.82 6.72,7.14 2.49,2.7 5,5.27 7.51,7.81 45.03,46.36 94.96,88.05 149.41,124.86 13.31,9.05 26.91,17.73 40.77,26.14 11.01,6.67 22.2,13.23 33.52,19.53l31.72 17.62 31.64 -17.62c11.38,-6.3 22.52,-12.86 33.55,-19.53 13.84,-8.41 27.44,-17.09 40.75,-26.14 123.83,-83.77 224.18,-192.85 297.47,-322.71 5.42,-9.6 10.66,-19.42 15.8,-29.24l-149.47 0c-6.24,9.85 -12.51,19.56 -19.1,29.16z"/>
  <path class="fil2" d="M1421.38 365.94l-602.64 0 0 760.49c20.74,16.75 42.47,32.46 65.25,47.28 22.7,-14.84 44.42,-30.53 65.17,-47.28l-0.01 -630.05 345.15 0c-0.64,12.09 -1.61,25.77 -2.99,40.75l131.05 -0.01c5.42,-65.14 3.02,-106.79 2.78,-110.01l-3.76 -61.17z"/>
  <path class="fil2" d="M560.21 855.89l45.01 -0.11 172.77 -0.37 0 -130.07 -265.72 0.01c-3.97,-13.86 -7.54,-27.23 -10.85,-40.56 -18.65,-76.57 -25.51,-143.3 -27.83,-188.44l304.38 0 0 -130.44 -431.43 0 -3.87 61.17c-0.32,5.34 -6.46,112.45 24.98,258.05 2.88,13.26 6.01,26.83 9.58,40.75 4.18,16.48 8.81,33.34 14.05,50.51 8.28,27.25 17.57,53.84 27.75,79.85l141.18 -0.35z"/>
  <path class="fil2" d="M1349.6 854.31c9.92,-25.37 18.97,-51.36 27.01,-77.92 5.34,-17.81 10.19,-35.22 14.53,-52.2l-41.54 -0.01 0 -0.03 -264.56 0.01 0 0.03 -95.14 -0.01 0 130.86 29.24 -0.05 0 -0.66 144.27 0 0 0 45.01 0 0 0 141.18 0 0 -0.02 0 0z"/>
 </g>
</svg>
