<?xml version="1.0" encoding="utf-8"?>
<!-- Generator: Adobe Illustrator 15.0.0, SVG Export Plug-In . SVG Version: 6.00 Build 0)  -->
<!DOCTYPE svg PUBLIC "-//W3C//DTD SVG 1.1//EN" "http://www.w3.org/Graphics/SVG/1.1/DTD/svg11.dtd">
<svg version="1.1" id="Layer_1" xmlns="http://www.w3.org/2000/svg" xmlns:xlink="http://www.w3.org/1999/xlink" x="0px" y="0px"
	 width="50px" height="50px" viewBox="0 0 50 50" enable-background="new 0 0 50 50" xml:space="preserve">
<g>
	<path fill="#4D4D4D" d="M49.276,3.934H0.612L0.479,4.586c-0.06,0.297-1.451,7.381,0.806,16.542
		C2.611,26.51,4.928,31.48,8.175,35.906c4.051,5.52,9.562,10.189,16.381,13.885L24.943,50l0.388-0.209
		c6.818-3.695,12.33-8.365,16.382-13.885c3.245-4.426,5.563-9.396,6.89-14.778c2.256-9.161,0.866-16.245,0.806-16.542L49.276,3.934z
		 M47.005,20.809c-1.994,8.041-7.445,19.277-22.062,27.337C10.328,40.086,4.875,28.85,2.881,20.809
		C1.078,13.539,1.688,7.499,1.967,5.561h45.954C48.198,7.499,48.809,13.539,47.005,20.809z"/>
	<path fill="#FBAA26" d="M34.417,31.113c-1.549,2.256-3.373,4.271-5.469,6.041c-0.499,0.42-1.013,0.824-1.54,1.221
		c-0.788,0.582-1.609,1.135-2.463,1.658c-0.857-0.523-1.678-1.076-2.466-1.658c-0.529-0.396-1.042-0.801-1.541-1.221
		c-0.064-0.057-0.128-0.111-0.193-0.166c-0.09-0.076-0.18-0.156-0.269-0.236c-0.089-0.076-0.178-0.152-0.267-0.236
		c-0.087-0.076-0.175-0.156-0.262-0.238c-0.474-0.436-0.934-0.887-1.375-1.35h2.426v-4.92h-0.253H9.095
		c0.589,1.129,1.228,2.219,1.92,3.268c0.081,0.125,0.164,0.248,0.248,0.371c0.083,0.121,0.167,0.244,0.251,0.363
		c0.084,0.123,0.169,0.242,0.255,0.365c0.083,0.117,0.166,0.23,0.25,0.344c0.005,0.012,0.014,0.021,0.02,0.031
		c0.044,0.059,0.087,0.119,0.132,0.178c0.035,0.049,0.071,0.096,0.106,0.141c0.008,0.01,0.014,0.021,0.021,0.031
		c0.087,0.113,0.175,0.23,0.264,0.344c0.089,0.119,0.179,0.236,0.271,0.35c0.092,0.115,0.184,0.229,0.276,0.346
		c0.003,0.004,0.008,0.01,0.011,0.012c0.09,0.111,0.179,0.221,0.27,0.328c0.257,0.313,0.522,0.619,0.791,0.92
		c0.078,0.09,0.159,0.178,0.239,0.268c0.015,0.018,0.031,0.037,0.046,0.053c0.075,0.082,0.152,0.162,0.229,0.244
		c0.017,0.021,0.038,0.043,0.058,0.064c0.083,0.09,0.169,0.182,0.254,0.27c0.094,0.102,0.189,0.199,0.284,0.295
		c1.702,1.752,3.589,3.328,5.647,4.719c0.503,0.342,1.017,0.67,1.541,0.988c0.416,0.252,0.839,0.5,1.267,0.738l1.199,0.666
		l1.196-0.666c0.43-0.238,0.851-0.486,1.268-0.738c0.523-0.318,1.037-0.646,1.54-0.988c4.68-3.166,8.473-7.289,11.243-12.197
		c0.205-0.363,0.403-0.734,0.597-1.105h-5.65C34.903,30.383,34.666,30.75,34.417,31.113z"/>
	<path fill="#FBAA26" d="M45.256,7.681H22.479v28.743c0.784,0.633,1.605,1.227,2.466,1.787c0.858-0.561,1.679-1.154,2.463-1.787
		V12.611h13.045c-0.024,0.457-0.061,0.974-0.113,1.54h4.953c0.205-2.462,0.114-4.036,0.105-4.158L45.256,7.681z"/>
	<path fill="#FBAA26" d="M12.708,26.199l1.701-0.004l6.53-0.014v-4.916H10.896c-0.15-0.524-0.285-1.029-0.41-1.533
		c-0.705-2.894-0.964-5.416-1.052-7.122h11.504v-4.93H4.632L4.486,9.992c-0.012,0.202-0.244,4.25,0.944,9.753
		c0.109,0.501,0.227,1.014,0.362,1.54c0.158,0.623,0.333,1.26,0.531,1.909c0.313,1.03,0.664,2.035,1.049,3.018L12.708,26.199z"/>
	<path fill="#FBAA26" d="M42.543,26.139c0.375-0.959,0.717-1.941,1.021-2.945c0.202-0.673,0.385-1.331,0.549-1.973h-1.57v-0.001
		h-9.999v0.001h-3.596v4.946l1.105-0.002v-0.025h5.453l0,0h1.701l0,0H42.543L42.543,26.139L42.543,26.139z"/>
</g>
</svg>
