<svg id="Start_Up" height="512" viewBox="0 0 1000 1000" width="512" xmlns="http://www.w3.org/2000/svg"><g><path d="m837.187 546.048c-27.225-47.938-70.161-79.104-111.683-109.244l-10.361-7.533c-55.216-40.193-107.369-78.154-135.623-138.041-1.813-3.836-3.582-8.1-5.455-12.611-.873-2.096-1.757-4.223-2.672-6.372 10.606-30.073.332-63.948-25.471-82.387-3.432-10.376-9.501-19.153-17.853-25.904 15.272-37.432 16.765-64.182 4.854-83.394-6.541-10.559-20.383-23.254-49.171-23.791l-1.304-.014c-12.764 0-25.973 3.514-39.434 10.475-14.672-14.612-34.201-22.712-55.762-22.712-5.26 0-10.65.485-16.021 1.441-31.621 5.628-48.574 26.091-63.531 44.144-8.584 10.361-16.692 20.148-27 26.507-8.275 5.104-17.155 9.242-26.555 13.618-21.561 10.043-45.996 21.421-63.275 46.65-23.943 34.967-20.596 71.099 8.531 92.047 5.805 4.174 11.721 7.029 16.941 9.553 7.67 3.705 12.132 5.99 14.633 9.889 2.32 3.617-3.107 18.885-4.891 23.899l-.986 2.788c-.977 2.798-2.111 5.752-3.285 8.824-7.769 20.342-18.409 48.197-4.555 73.4 13.139 23.908 29.871 28.928 41.596 28.928 25.169 0 46.738-22.896 65.769-43.099 4.45-4.722 8.752-9.292 12.691-13.123-15.145 29.479-37.081 56.419-56.552 78.896-6.262 7.231-12.545 14.388-18.808 21.521-31.965 36.405-65.021 74.053-91.567 117.856-46.457 76.657-76.691 186.226-24.911 267.263-2.628 32.088 8.062 56.225 30.526 68.454 11.107 6.049 24.551 9.117 39.955 9.117 10.953 0 22.941-1.494 36.501-4.557 69.944 21.84 143.157 23.588 214.01 25.283 8.248.199 16.48.396 24.692.621 19.453.539 40.289 1.039 60.865 1.039 53.979 0 124.004-3.041 189.879-26.398 5.99.633 11.918 1.137 17.689 1.631 4.107.348 8.168.693 12.15 1.08 4.5.436 8.973.656 13.289.656h.002c21.68 0 38.574-5.369 50.202-15.961 20.798-18.938 28.241-49.651 20.863-85.054 39.869-83.388 32.709-194.495-18.912-285.385z" fill="#fff"/><g><path d="m820.16 555.717c-26.639-46.902-70.712-77.241-113.418-108.341-57.297-41.721-113.979-82.184-144.934-147.791-3.979-8.432-7.5-18.029-11.758-27.182 12.469-24.276 4.604-54.705-18.892-68.827-.731-.44-1.509-.778-2.26-1.174-2.705-16.136-12.8-25.486-25.854-30.258 16.396-34.625 38.416-94.71-19.656-95.798-15.943-.297-31.383 7.016-44.893 16.564-13.741-22.316-37.346-32.386-63.832-27.673-41.076 7.313-51.238 48.022-83.682 68.04-29.26 18.053-63.121 24.24-83.955 54.665-14.941 21.821-19.713 48.167 3.811 65.085 12.35 8.883 27.889 11.154 36.621 24.768 8.066 12.574.51 31.193-3.877 43.727-6.768 19.344-20.361 45.949-9.16 66.327 28.382 51.651 69.465-17.265 97.889-39.604 9.952-7.816 12.35-5.091 19.678-.94 1.74.985 3.568 1.979 5.358 2.934 7.421 3.961 6.854 9.188 2.938 17.472-1.749 3.692-3.57 7.353-5.426 10.974-15.516 30.285-37.116 57.417-59.295 83.02-38.488 44.434-77.766 86.106-108.43 136.706-43.359 71.544-74.326 176.169-21.952 251.369.175.251.374.45.567.661-3.148 22.006-.168 45.571 19.614 56.338 18.497 10.069 44.067 7.371 67.874 1.448 76.72 25.15 158.627 24.426 238.469 26.643 82.636 2.293 169.205 3.307 247.834-25.757 11.492 1.358 23.089 2.123 34.092 3.188 15.201 1.471 36.327.724 48.422-10.29 19.43-17.692 20.121-47.182 13.373-72.978 43.735-84.509 30.647-192.477-15.266-273.316z" fill="#68182b"/><path d="m516.199 197.734c-24.326-5.501-54.263 3.805-75.195 11.949-34.416 13.389-68.009 40.03-85.756 72.69-6.93 12.754-10.877 31.1-7.748 46.682-21.567-26.61 1.439-71.322 22.145-95.361 17.814-20.683 42.262-36.127 67.426-46.15 19.984-7.961 69.043-18.125 79.128 10.19z" fill="#ff801d"/><path d="m243.526 379.813c-7.072-17.994 6.818-42.828 12.678-59.572 3.554-10.15 6.057-20.427 5.541-30.622 10.228 13.937 11.446 29.201 7.988 45.468-.108.513.646.661.938.256 12.436-17.368 9.955-41.051-3.502-57.178-8.074-9.679-17.156-18.125-28.306-24.084-7.323-3.917-14.438-6.912-21.224-10.676-2.387-1.498-4.652-3.113-6.678-4.947-18.938-17.167 6.924-47.109 19.293-58.749 14.051-13.222 31.776-20.931 49.285-28.279 22.533-9.462 37.006-22.522 51.404-41.978 13.229-17.868 27.797-30.893 50.676-33.527 20.548-2.371 37.431 6.785 47.68 24.023-4.012 3.302-7.801 6.697-11.295 10.025-13.829 13.168-33.244 36.213-30.225 56.68.082.544 1.037.814 1.265.332 22.304-47.631 54.325-67.355 74.376-75.576 24.557-10.066 51.758-1.328 45.3 28.615-3.627 16.807-11.521 32.926-17.526 49.058-6.453-1.048-13.235-1.317-19.941-.985-38.363 1.889-74.045 23.867-101.578 49.129-4.549 4.174-9.082 9.098-13.406 14.545-8.977-23.984-12.438-48.481-10.947-74.377.041-.697-.908-.715-1.131-.153-9.643 24.304-5.752 50.978 1.645 75.587 4.697 15.628-3.143 19.172-14.819 18.11-17.18-1.542-35.607-.071-48.737 11.307-.371.323-.084 1.017.406.985 18.788-1.287 35.74-3.23 54.133.539-10.564 23.755-13.944 49.799-1.041 69.088-23.681 13.333-75.051 90.71-92.252 46.956z" fill="#fbf199"/><path d="m371.538 277.499c14.306-22.104 37.858-38.633 60.519-51.027 18.947-10.365 41.143-16.284 62.604-17.939 30.271-2.33 58.335 20.827 48.45 50.95-3.709-5.829-8.07-11.054-13.521-15.093-15.631-11.586-33.244-11.666-51.87-9.063-39.595 5.527-84.39 28.117-98.935 67.551-3.546 9.61-3.656 20.669-5.938 30.572-1.79 7.754-5.318 11.166-10.8 2.783-10.738-16.42.123-44.266 9.491-58.734z" fill="#ff801d"/><path d="m830.309 813.387c-1.752-4.39-3.668-8.554-5.703-12.354-.727-1.354-3.057-.777-2.95.801 1.77 26.314 15.581 75.73-12.406 92.717-19.325 11.734-44.438 5.873-68.603 3.126-.606-.221-1.29-.292-2.025-.221-12.762-1.354-25.207-1.69-36.325 2.109-.699.238-.668 1.138 0 1.386 4.274 1.605 8.729 2.864 13.254 3.975-70.048 20.946-145.245 20.433-217.745 18.593-74.748-1.893-151.523-1.137-224.063-21.165 7.382-2.352 14.292-4.744 20.347-6.831.869-.302 1.047-1.735 0-1.942-26.578-5.307-53.137 5.193-79.752 6.224-51.434 1.987-32.493-44.384-38.879-76.261-.32-1.592-2.447-1.287-2.914 0-1.229 3.377-2.393 7.043-3.445 10.883-33.291-57.584-19.076-131.713 6.641-189.688 25.76-58.07 66.846-109.069 110.021-155.063 38.455-40.957 74.852-86.407 94.186-139.75 7.855-21.677 6.033-44.245 20.803-63.048 8.193-10.434 18.927-18.336 30.793-24.412-4.007 5.855-7.324 12.246-10.033 18.476-9.781 22.474-13.523 53.046-4.4 76.288.107.274.523.247.53-.072.475-23.408.604-44.973 8.605-67.383 9.726-27.25 20.895-34.652 34.62-38.561 15.559-4.443 25.719-1.569 33.348 9.031 8.449 11.732 11.973 27.365 16.012 41.037.152.518.885.514 1.038 0 4.808-15.961-4.92-37.633-14.456-50.307-1.748-2.32-3.625-4.246-5.593-5.873 26.962-1.498 39.595 15.461 51.555 40.597 12.966 27.245 24.856 53.802 44.432 77.098 43.138 51.351 105.444 86.745 157.862 127.459 86.873 67.482 124.252 185.335 96.578 291.921-2.796 10.752-6.691 21.144-11.333 31.21z" fill="#fbf199"/><path d="m381.619 75.925c-9.834 1.133-18.07 4.276-25.388 8.81 9.294-4.065 19.469-5.892 30.316-4.304 19.792 2.896 22.405 22.832 17.646 38.361-1.462 4.768-3.513 9.314-5.674 13.813 5.93-8.783 13.266-16.708 19.484-22.631 3.494-3.328 7.283-6.724 11.295-10.025-10.248-17.239-27.131-26.395-47.679-24.024z" fill="#f3af79"/><path d="m329.977 241.709c-11.197 8.302-27.469 5.379-38.051 14.329 11.764-5.622 25.785-6.297 39.089-5.101 11.677 1.062 19.517-2.482 14.819-18.11-4.066-13.523-7.055-27.672-7.336-41.713-.199 3.391-.213 6.791-.133 10.137.342 13.91 4.666 30.771-8.388 40.458z" fill="#f3af79"/><path d="m244.209 353.585c-.026-.405.006-.828-.014-1.232-2.742 9.633-3.895 19.258-.67 27.461 17.201 43.754 68.571-33.623 92.25-46.957-12.903-19.289-9.523-45.333 1.041-69.088-13.387-2.744-26.016-2.451-39.141-1.597 4.479.62 8.918 2.204 12.84 4.052 12.02 5.658 9.686 18.089 7.572 28.41-1.172 5.721-1.703 11.117-.864 16.964 2.035 14.157 1.005 23.674-8.093 35.16-9.8 12.372-26.078 27.442-40.993 32.695-16.859 5.933-23.156-14.481-23.928-25.868z" fill="#f3af79"/><path d="m369.674 217.226c27.533-25.262 63.215-47.24 101.578-49.129 6.706-.332 13.488-.063 19.941.985 6.006-16.132 13.899-32.251 17.526-49.058 4.587-21.268-7.827-31.787-24.193-32.52 6.163.634 11.711 3.021 15.675 8.203 8.996 11.756 2.067 31.701-3.898 43.03-6.461 12.269-17.306 19.56-30.549 22.563-23.043 5.23-43.999 10.074-64.459 22.514-9.715 5.904-18.033 13.738-27.693 19.697-17.803 10.979-24.551-6.449-28.102-21.482 1.195 16.994 4.685 33.49 10.768 49.74 4.324-5.446 8.857-10.37 13.406-14.543z" fill="#f3af79"/><path d="m453.466 271.697c8.001-4.83 18.231-5.815 27.245-4.165 12.522 2.294 20.275 11.658 26.139 22.028-3.014-10.335-6.535-20.845-12.639-29.317-7.629-10.601-17.789-13.475-33.348-9.031-13.726 3.908-24.895 11.311-34.62 38.561-5.981 16.757-7.562 33.041-8.179 49.979 5.485-26.162 10.337-52.926 35.402-68.055z" fill="#f3af79"/><path d="m210.961 238.458c2.025 1.834 4.291 3.449 6.678 4.947 6.785 3.764 13.9 6.759 21.224 10.676 11.149 5.959 20.231 14.405 28.306 24.084 7.75 9.287 11.83 21.074 11.549 32.723 6.576-22.199-8.906-46.13-28.117-57.504-7.191-4.254-14.773-7.74-21.859-12.196-11.377-7.151-14.933-19.101-14.42-31.859.232-5.747 1.578-11.185 3.725-16.312-11.088 14.017-20.752 33.054-7.086 45.441z" fill="#f3af79"/><path d="m828.764 601.194c4.144 18.879 6.943 38.024 8.074 57.507.953 16.433.488 32.921-.65 49.331-1.309 18.88-1.799 38.561-7.584 56.689-4.198 13.158-16.615 20.508-24.561 31.018-8.402 11.113-7.689 20.998-6.484 34.454 3.816 42.616-58.067 24.497-81.688 21.411-14.749-1.929-42.295-11.486-49.518 7.529-4.077 10.734-.91 22.077-9.93 30.969-11.59 11.428-36.382 12.664-51.434 14.48-36.006 4.35-72.583 5.848-108.827 5.91-37.854.063-76.868-.984-114.243-7.317-17.43-2.95-44.308-7.461-54.762-23.049-8.424-12.565 7.497-37.171-6.085-46.817-11.335-8.05-28.87.153-40.339 4.017-13.732 4.623-26.814 10.929-40.6 15.431-15.657 5.117-36.369 8.504-44.045-10.074-7.98-19.316.048-42.082-11.207-60.629-2.9-4.775-9.924-6.489-14.361-9.291-12.49-7.871-16.389-23.719-19.689-37.193-.041-.162-.07-.332-.111-.494-3.444 34.521.947 69.205 18.377 99.35 1.053-3.84 2.217-7.506 3.445-10.883.467-1.287 2.594-1.592 2.914 0 6.386 31.877-12.555 78.248 38.879 76.261 26.615-1.03 53.174-11.53 79.752-6.224 1.047.207.869 1.641 0 1.942-6.055 2.087-12.965 4.479-20.347 6.831 72.54 20.028 149.315 19.272 224.063 21.165 72.5 1.84 147.697 2.354 217.745-18.593-4.524-1.11-8.979-2.369-13.254-3.975-.668-.248-.699-1.147 0-1.386 11.118-3.8 23.563-3.463 36.325-2.109.735-.071 1.419 0 2.025.221 24.164 2.747 49.277 8.608 68.603-3.126 27.987-16.986 14.176-66.402 12.406-92.717-.106-1.578 2.224-2.154 2.95-.801 2.035 3.801 3.951 7.965 5.703 12.354 4.643-10.065 8.537-20.458 11.33-31.212 15.698-60.456 10.446-124.525-12.872-180.98z" fill="#f3af79"/><path d="m284.684 493.456c10.336-9.746 20.494-19.662 30.412-30.164 18.068-19.122 34.763-39.262 49.406-61.145 14.537-21.732 21.466-44.871 28.333-69.799 5.363-19.469 14.321-34.045 27.044-47.43.525-1.349 1.064-2.68 1.629-3.979 2.709-6.229 6.026-12.62 10.033-18.476-11.866 6.076-22.6 13.979-30.793 24.412-14.77 18.803-12.947 41.371-20.803 63.048-19.334 53.343-55.73 98.793-94.186 139.75-5.682 6.054-11.324 12.201-16.904 18.43 4.128-3.796 8.293-7.596 12.369-11.409 1.177-1.056 2.31-2.154 3.46-3.238z" fill="#f3af79"/><path d="m527.375 277.135c6.579 9.921 10.44 21.597 14.796 32.592 7.642 19.289 18.72 36.824 31.763 52.907 20.031 24.707 45.568 43.65 71.838 61.154 25.426 16.941 50.836 33.91 75.967 51.287 10.44 7.219 21.105 14.418 31.589 21.885-2.705-2.285-5.458-4.525-8.267-6.706-52.418-40.714-114.725-76.108-157.862-127.459-19.575-23.296-31.466-49.853-44.432-77.098-11.96-25.136-24.593-42.095-51.555-40.597 1.968 1.627 3.845 3.553 5.593 5.873 1.479 1.965 2.957 4.169 4.391 6.512 10.852.684 20.8 11.545 26.179 19.65z" fill="#f3af79"/><path d="m761.366 632.145c-35.799-84.446-128.217-172.45-269.302-171.155-132.031 1.211-238.197 142.404-264.117 226.68-6.059 19.702-8.369 46.664 5.99 63.794 13.014 15.524 34.283 18.529 53.073 23.404 42.524 11.036 36.862 21.326 59.518 54.44 15.479 22.631 43.093 32.475 68.568 40.16 67.28 20.293 122.907 19.82 184.546-5.932 30.068-12.561 51.379-36.621 77.531-54.831 12.568-8.752 26.969-13.789 40.85-20.135 28.801-13.163 44.15-20.071 54.487-70.54 5.793-28.275.329-58.825-11.144-85.885z" fill="#fff7cf"/><path d="m494.394 317.61c-21.52-49.129-45.347-36.226-54.966 12.728-5.291 26.907-6.996 54.917 1.079 71.354 6.935 14.117 21.896 12.282 31.69 9.674 44.663-11.918 37.581-58.654 22.197-93.756z" fill="#fff7cf"/><path d="m507.009 324.793c1.821 5.94 4.126 10.726 6.649 14.099 9.738 13.02 23.235-5.051 15.014-15.614-2.237-2.874-5.738-5.933-11.057-8.909-13.406-7.512-13.988-.617-10.606 10.424z" fill="#fff7cf"/><path d="m349.379 107.222c-17.049 29.35-45.818 40.102-57.129 45.342-18.264 8.459-39.518 20.301-47.087 40.237-12.835 33.815 42.362 50.608 59.814 24.874 10.87-16.027 10.614-36.693 20.004-53.59 5.597-10.074 13.585-17.467 24.281-21.785 8.871-3.584 17.73-4.488 25.538-10.609 34.386-26.962-6.257-57.467-25.421-24.469z" fill="#fff7cf"/><path d="m490.133 109.815c-6.283-12.228-21.102-9.191-31.54-4.411-14.751 6.755-28.607 19.011-37.494 33.212-4.929 7.88-2.507 11.653 10.596 7.498 5.698-1.813 11.575-2.978 18.063-3.518 7.814-.656 15.561-1.569 23.118-3.732 12.402-3.549 24.326-15.287 17.257-29.049z" fill="#fff7cf"/><path d="m288.315 327.819c-4.209 8.266-8.266 17.494-19.158 13.879-11.127-3.697-18.108 6.998-15.221 17.018 6.07 21.074 29.715 6.912 38.771-5.842 4.631-6.521 8.314-17.777 9.329-26.147 2.874-23.791-5.315-15.44-13.721 1.092z" fill="#fff7cf"/><path d="m355.248 282.374c17.747-32.66 51.34-59.302 85.756-72.69 18.823-7.326 44.916-15.548 67.676-13.142-10.389-3.26-33.824-3.265-35.572-3.103-28.25 2.572-58.384 16.888-80.395 34.454-19.851 15.844-36.527 35.484-45.699 59.383-3.811 9.93-5.363 20.615-4.571 31.202.069.944.207 1.88.345 2.815 1.261 2.707 2.742 5.329 4.713 7.762-3.13-15.581.818-33.927 7.747-46.681z" fill="#ef6200"/><path d="m519.866 231.94c-19.491-8.675-42.302-6.971-62.112-.755-25.273 7.929-52.061 22.905-69.889 42.692-8.104 8.995-13.555 19.938-16.572 31.59-2.654 10.254-.317 25.445-7.027 33.627 4.228 4.434 7.045 1.002 8.581-5.645 2.282-9.903 2.393-20.962 5.938-30.572 14.545-39.434 59.34-62.023 98.935-67.551 18.626-2.604 36.239-2.523 51.87 9.063 5.234 3.877 9.446 8.869 13.058 14.418-1.521-12.281-10.728-21.501-22.782-26.867z" fill="#ef6200"/><g fill="#68182b"><path d="m381.194 192.526c3.333-3.318 3.996-7.398 5.195-11.783.285-1.043.943-6.381-1.467-5.932-3.024.563-3.912 4.232-4.73 6.741-1.201 3.684-1.898 6.89-.439 10.591.232.59.945.878 1.441.383z"/><path d="m556.145 658.211c.416-28.882 1.299-57.731 2.729-86.483 15.053 6.229 28.464 15.574 37.966 28.373 13.119 17.666 43.123.477 29.826-17.432-16.799-22.621-39.994-37.975-65.732-46.461.763-11.289 1.567-22.563 2.541-33.803 1.925-22.198-32.631-22.014-34.539 0-.77 8.869-1.369 17.773-2.006 26.674-13.104-1.299-26.41-1.043-39.51.72-.26-6.458-.562-12.921-.908-19.374-1.191-22.15-35.735-22.267-34.539 0 .494 9.21.867 18.434 1.191 27.658-3.858 1.385-7.663 2.9-11.392 4.564-31.157 13.92-57.514 50.811-52.544 85.666 5.005 35.123 34.02 52.102 65.19 59.396.027 27.047.097 54.296-.911 81.438-25.59-6.301-50.188-19.141-62.164-42.626-10.119-19.846-39.918-2.365-29.821 17.432 17.328 33.982 52.126 52.385 89.924 60.377-.681 8.541-1.462 17.063-2.493 25.541-2.686 22.076 31.886 21.82 34.539 0 .85-6.989 1.557-14.01 2.16-21.043 12.602.741 25.049.521 36.85-.473.135 6.277.25 12.574.396 18.844.522 22.234 35.063 22.289 34.54 0-.193-8.23-.352-16.496-.52-24.749 47.264-13.353 95.862-50.23 71.857-104.279-12.083-27.215-45.71-36.434-72.63-39.96zm-31.342-95.114c-1.688 31.283-2.717 62.693-3.18 94.139-10.789.414-21.809 1.034-32.629.891.102-31.311.122-62.688-.549-94.03 11.526-2.012 23.965-2.368 36.358-1zm-87.312 25.351c4.837-5.522 10.477-9.822 16.608-13.23.416 26.017.416 52.047.357 78.047-7.313-2.406-14.231-5.888-20.541-10.934-18.849-15.084-9.612-38.826 3.576-53.883zm50.31 185.646c1.14-27.349 1.153-54.827 1.14-82.121 10.661.188 21.538-.347 32.384-.644-.104 27.668.105 55.304.543 82.863-11.594.791-23.195.577-34.067-.098zm92.197-17.531c-7.166 5.01-15.189 8.701-23.679 11.432-.37-25.072-.548-50.203-.463-75.366 10.556 1.489 20.796 4.322 30.425 9.665 25.201 13.982 12.159 41.38-6.283 54.269z"/><path d="m301.555 860.896c-20.381 3.067-42.574 9.472-61.75 17.04-.243.095-.211.441.063.459 20.758 1.358 43.826-7.264 62.214-16.248.754-.369.177-1.354-.527-1.251z"/><path d="m306.264 847.257c-4.521.22-8.424 2.396-12.537 4.114-4.404 1.839-8.977 3.323-13.307 5.339-.371.17-.146.674.191.701 8.34.661 20.598-2.339 26.16-8.928.377-.445.17-1.258-.507-1.226z"/><path d="m781.617 875.913c-12.383-1.16-24.555-.958-36.849-3.266-12.446-2.334-24.546-6.103-37.009-8.378-.334-.063-.604.427-.249.589 21.423 9.827 50.975 22.01 74.302 12.503.777-.315.663-1.367-.195-1.448z"/><path d="m795.013 877.487c-.901.197-1.677.031-2.597.274-.882.229-1.754.927-2.564 1.345-1.732.891-3.604 1.879-5.492 2.393-.522.139-.83.603-.857 1.124-.148-.063-.297-.13-.445-.198-.252.055-.264.477 0 .521.162-.004.324-.008.486-.013.101.521.636.832 1.126.858 2.192.108 3.908-.021 6.015-.787 1.139-.408 2.191-1.097 3.217-1.723 1.142-.696 1.191-1.771 1.904-2.766.386-.537-.247-1.149-.793-1.028z"/><path d="m225.365 587.878c-16.207 17.408-28.459 39.49-38.656 60.84-10.281 21.523-16.596 44.389-15.129 68.35.049.818 1.289 1.07 1.484.203 5.236-23.414 11.473-46.503 21.07-68.545 9.113-20.935 22.486-39.701 31.598-60.564.1-.225-.173-.491-.367-.284z"/><path d="m171.883 722.599c-2.475 6.863-2.818 13.857-.016 20.63.212.513.891.432.954-.13.763-6.881 2.231-13.735-.034-20.5-.152-.45-.744-.436-.904 0z"/><path d="m769.718 568.507c-.337-.207-.682.266-.414.54 39.772 40.944 49.149 100.21 43.303 155.189-.09.841 1.12.872 1.378.188 10.257-27.177 7.246-57.372.373-84.99-6.573-26.412-20.768-56.063-44.64-70.927z"/><path d="m809.387 736.06c-1.262 7.047-3.402 13.397-7.279 19.492-.389.611.394 1.425 1.008 1.012 3.484-2.353 6.775-4.709 8.4-8.717 1.595-3.935 1.707-8.266-.42-12.012-.376-.661-1.563-.594-1.709.225z"/><path d="m629.481 469.629c.795.522 1.783-.729 1.025-1.327-20.938-16.473-42.656-27.969-68.688-34.22-27.876-6.692-57.001-7.335-85.375-3.962-53.956 6.413-112.766 30.609-147.872 73.631-.523.643.277 1.465.918.917 42.328-36.348 91.236-59.833 146.954-66.849 51.309-6.458 109.221 3.162 153.038 31.81z"/><path d="m546.514 421.669c12.063 1.777 24.125 5.515 35.652 9.409.639.22.976-.71.443-1.048-19.173-12.156-45.597-17.998-67.91-12.066-.259.067-.293.513 0 .558 10.541 1.582 21.246 1.596 31.815 3.147z"/><path d="m647.938 478.579c-1.01-.805-2.318-1.3-3.455-1.907-2.113-1.138-4.349-1.889-6.629-2.622-1.189-.383-1.662 1.229-.789 1.875 1.849 1.372 3.473 2.915 5.496 4.035 1.162.639 2.356 1.2 3.582 1.699 1.36.559 2.365.18 3.721.135.495-.018.859-.679.433-1.043-.89-.765-1.422-1.426-2.359-2.172z"/></g></g></g></svg>