<svg height="480pt" viewBox="-24 0 480 480" width="480pt" xmlns="http://www.w3.org/2000/svg"><path d="m344 48h16v176h-16zm0 0" fill="#bc8f6f"/><path d="m352 48h8v176h-8zm0 0" fill="#cb9e78"/><path d="m104 176h16v176h-16zm0 0" fill="#bc8f6f"/><path d="m112 176h8v176h-8zm0 0" fill="#cb9e78"/><path d="m32 416h160v32h-160zm0 0" fill="#eebc5a"/><path d="m32 352h160v32h-160zm0 0" fill="#eebc5a"/><path d="m0 448h160v32h-160zm0 0" fill="#f8cf6a"/><path d="m0 384h160v32h-160zm0 0" fill="#f8cf6a"/><path d="m272 416h160v32h-160zm0 0" fill="#eebc5a"/><path d="m272 352h160v32h-160zm0 0" fill="#eebc5a"/><path d="m240 448h160v32h-160zm0 0" fill="#f8cf6a"/><path d="m240 384h160v32h-160zm0 0" fill="#f8cf6a"/><path d="m272 288h160v32h-160zm0 0" fill="#eebc5a"/><path d="m272 224h160v32h-160zm0 0" fill="#eebc5a"/><path d="m240 320h160v32h-160zm0 0" fill="#f8cf6a"/><path d="m240 256h160v32h-160zm0 0" fill="#f8cf6a"/><path d="m176 240h-16c-26.511719 0-48 21.488281-48 48h16c26.511719 0 48-21.488281 48-48zm0 0" fill="#5da351"/><path d="m114.792969 272h13.207031c20.886719 0 38.617188-13.367188 45.207031-32h-13.207031c-20.886719 0-38.617188 13.367188-45.207031 32zm0 0" fill="#74c865"/><path d="m48 224h16c26.511719 0 48 21.488281 48 48h-16c-26.511719 0-48-21.488281-48-48zm0 0" fill="#5da351"/><path d="m109.207031 256h-13.207031c-20.886719 0-38.617188-13.367188-45.207031-32h13.207031c20.886719 0 38.617188 13.367188 45.207031 32zm0 0" fill="#74c865"/><path d="m112 176h32c26.511719 0 48-21.488281 48-48h-32c-26.511719 0-48 21.488281-48 48zm0 0" fill="#5da351"/><path d="m114.792969 160h29.207031c20.886719 0 38.617188-13.367188 45.207031-32h-29.207031c-20.886719 0-38.617188 13.367188-45.207031 32zm0 0" fill="#74c865"/><path d="m112 192h-32c-26.511719 0-48-21.488281-48-48h32c26.511719 0 48 21.488281 48 48zm0 0" fill="#5da351"/><path d="m109.207031 176h-29.207031c-20.886719 0-38.617188-13.367188-45.207031-32h29.207031c20.886719 0 38.617188 13.367188 45.207031 32zm0 0" fill="#74c865"/><path d="m416 112h-16c-26.511719 0-48 21.488281-48 48h16c26.511719 0 48-21.488281 48-48zm0 0" fill="#5da351"/><path d="m354.792969 144h13.207031c20.886719 0 38.617188-13.367188 45.207031-32h-13.207031c-20.886719 0-38.617188 13.367188-45.207031 32zm0 0" fill="#74c865"/><path d="m288 96h16c26.511719 0 48 21.488281 48 48h-16c-26.511719 0-48-21.488281-48-48zm0 0" fill="#5da351"/><path d="m349.207031 128h-13.207031c-20.886719 0-38.617188-13.367188-45.207031-32h13.207031c20.886719 0 38.617188 13.367188 45.207031 32zm0 0" fill="#74c865"/><path d="m352 48h32c26.511719 0 48-21.488281 48-48h-32c-26.511719 0-48 21.488281-48 48zm0 0" fill="#5da351"/><path d="m354.792969 32h29.207031c20.886719 0 38.617188-13.367188 45.207031-32h-29.207031c-20.886719 0-38.617188 13.367188-45.207031 32zm0 0" fill="#74c865"/><path d="m352 64h-32c-26.511719 0-48-21.488281-48-48h32c26.511719 0 48 21.488281 48 48zm0 0" fill="#5da351"/><path d="m349.207031 48h-29.207031c-20.886719 0-38.617188-13.367188-45.207031-32h29.207031c20.886719 0 38.617188 13.367188 45.207031 32zm0 0" fill="#74c865"/></svg>